<?xml version="1.0" encoding="UTF-8" standalone="no"?>
<!-- Created with Inkscape (http://www.inkscape.org/) -->
<svg
   xmlns:dc="http://purl.org/dc/elements/1.1/"
   xmlns:cc="http://web.resource.org/cc/"
   xmlns:rdf="http://www.w3.org/1999/02/22-rdf-syntax-ns#"
   xmlns:svg="http://www.w3.org/2000/svg"
   xmlns="http://www.w3.org/2000/svg"
   xmlns:xlink="http://www.w3.org/1999/xlink"
   xmlns:sodipodi="http://sodipodi.sourceforge.net/DTD/sodipodi-0.dtd"
   xmlns:inkscape="http://www.inkscape.org/namespaces/inkscape"
   width="440"
   height="160"
   id="svg3150"
   sodipodi:version="0.32"
   inkscape:version="0.45+devel"
   sodipodi:docbase="/home/bernie/software/sidux-art/gaia/cd-label"
   sodipodi:docname="sidux-2007-03-logo.svg"
   inkscape:output_extension="org.inkscape.output.svg.inkscape"
   version="1.0"
   inkscape:export-filename="/home/bernie/svn/svn.berlios.de-fullstory/sidux-art-website/trunk/gaia-theme/html/themes/gaia/images/logo.png"
   inkscape:export-xdpi="32.727272"
   inkscape:export-ydpi="32.727272">
  <defs
     id="defs3152">
    <filter
       inkscape:collect="always"
       x="-0.25280899"
       width="1.505618"
       y="-0.25280899"
       height="1.505618"
       id="filter3602">
      <feGaussianBlur
         inkscape:collect="always"
         stdDeviation="4.6348316"
         id="feGaussianBlur3604" />
    </filter>
    <linearGradient
       id="linearGradient3300">
      <stop
         id="stop3302"
         offset="0"
         style="stop-color:#ffffff;stop-opacity:1" />
      <stop
         style="stop-color:#7f7f7f;stop-opacity:0.49803922;"
         offset="0.5"
         id="stop3308" />
      <stop
         id="stop3310"
         offset="0.75"
         style="stop-color:#3f3f3f;stop-opacity:0.24705882;" />
      <stop
         style="stop-color:#1f1f1f;stop-opacity:0.12156863;"
         offset="0.875"
         id="stop3312" />
      <stop
         id="stop3314"
         offset="0.9375"
         style="stop-color:#0f0f0f;stop-opacity:0.05882353;" />
      <stop
         style="stop-color:#070707;stop-opacity:0.02745098;"
         offset="0.96875"
         id="stop3316" />
      <stop
         id="stop3318"
         offset="0.984375"
         style="stop-color:#030303;stop-opacity:0.01176471;" />
      <stop
         style="stop-color:#010101;stop-opacity:0.00392157;"
         offset="0.9921875"
         id="stop3320" />
      <stop
         id="stop3304"
         offset="1"
         style="stop-color:#000000;stop-opacity:0;" />
    </linearGradient>
    <linearGradient
       id="linearGradient3817">
      <stop
         id="stop3819"
         offset="0"
         style="stop-color:#ffffff;stop-opacity:1" />
      <stop
         id="stop3821"
         offset="1"
         style="stop-color:#b49e1c;stop-opacity:0;" />
    </linearGradient>
    <filter
       id="filter8125"
       height="1.5338043"
       y="-0.26690212"
       width="1.5328633"
       x="-0.26643163"
       inkscape:collect="always">
      <feGaussianBlur
         id="feGaussianBlur8127"
         stdDeviation="3.9779066"
         inkscape:collect="always" />
    </filter>
    <filter
       id="filter6712"
       inkscape:collect="always">
      <feGaussianBlur
         id="feGaussianBlur6714"
         stdDeviation="0.93998754"
         inkscape:collect="always" />
    </filter>
    <filter
       id="filter6664"
       inkscape:collect="always">
      <feGaussianBlur
         id="feGaussianBlur6666"
         stdDeviation="0.21047761"
         inkscape:collect="always" />
    </filter>
    <filter
       id="filter6192"
       inkscape:collect="always">
      <feGaussianBlur
         id="feGaussianBlur6194"
         stdDeviation="0.86145189"
         inkscape:collect="always" />
    </filter>
    <filter
       id="filter9010"
       inkscape:collect="always">
      <feGaussianBlur
         id="feGaussianBlur9012"
         stdDeviation="2.3407223"
         inkscape:collect="always" />
    </filter>
    <linearGradient
       id="linearGradient8908">
      <stop
         id="stop8910"
         offset="0"
         style="stop-color:#95acae;stop-opacity:1;" />
      <stop
         style="stop-color:#000000;stop-opacity:0.70408165;"
         offset="1"
         id="stop8964" />
      <stop
         id="stop8912"
         offset="1"
         style="stop-color:#adbad2;stop-opacity:0" />
    </linearGradient>
    <filter
       id="filter3517"
       inkscape:collect="always">
      <feGaussianBlur
         id="feGaussianBlur3519"
         stdDeviation="1.6210035"
         inkscape:collect="always" />
    </filter>
    <filter
       id="filter3529"
       inkscape:collect="always">
      <feGaussianBlur
         id="feGaussianBlur3531"
         stdDeviation="2.7101151"
         inkscape:collect="always" />
    </filter>
    <filter
       inkscape:collect="always"
       id="filter3611">
      <feGaussianBlur
         inkscape:collect="always"
         stdDeviation="3.6844641"
         id="feGaussianBlur3613" />
    </filter>
    <filter
       inkscape:collect="always"
       x="-0.16483144"
       width="1.3296629"
       y="-0.16483144"
       height="1.3296629"
       id="filter3761">
      <feGaussianBlur
         inkscape:collect="always"
         stdDeviation="3.0219098"
         id="feGaussianBlur3763" />
    </filter>
    <linearGradient
       inkscape:collect="always"
       xlink:href="#linearGradient8908"
       id="linearGradient4845"
       gradientUnits="userSpaceOnUse"
       x1="165.80635"
       y1="176.5179"
       x2="177.21674"
       y2="358.34848" />
    <linearGradient
       inkscape:collect="always"
       xlink:href="#linearGradient3817"
       id="linearGradient4847"
       gradientUnits="userSpaceOnUse"
       x1="898.66669"
       y1="118.83334"
       x2="906.33331"
       y2="60.833332" />
    <linearGradient
       inkscape:collect="always"
       xlink:href="#linearGradient3817"
       id="linearGradient4849"
       gradientUnits="userSpaceOnUse"
       x1="887.83337"
       y1="113.83334"
       x2="903"
       y2="81.166664" />
    <radialGradient
       inkscape:collect="always"
       xlink:href="#linearGradient3817"
       id="radialGradient4857"
       gradientUnits="userSpaceOnUse"
       cx="893.33331"
       cy="100"
       fx="893.33331"
       fy="100"
       r="18.833334" />
    <linearGradient
       inkscape:collect="always"
       xlink:href="#linearGradient8908"
       id="linearGradient4914"
       gradientUnits="userSpaceOnUse"
       x1="165.80635"
       y1="176.5179"
       x2="177.21674"
       y2="358.34848" />
    <radialGradient
       inkscape:collect="always"
       xlink:href="#linearGradient3300"
       id="radialGradient4916"
       gradientUnits="userSpaceOnUse"
       gradientTransform="matrix(1.172074,1.2495316,-1.1987462,1.1244368,642.98693,-210.02164)"
       cx="53.790623"
       cy="378.35522"
       fx="53.790623"
       fy="378.35522"
       r="16.92091" />
    <linearGradient
       inkscape:collect="always"
       xlink:href="#linearGradient3817"
       id="linearGradient4955"
       gradientUnits="userSpaceOnUse"
       gradientTransform="translate(110.90804,265.50752)"
       x1="228.96413"
       y1="108.35915"
       x2="228.87393"
       y2="11.835818" />
    <filter
       inkscape:collect="always"
       x="-0.022648772"
       width="1.0452975"
       y="-0.21113142"
       height="1.4222628"
       id="filter5293">
      <feGaussianBlur
         inkscape:collect="always"
         stdDeviation="2.9120882"
         id="feGaussianBlur5295" />
    </filter>
  </defs>
  <sodipodi:namedview
     id="base"
     pagecolor="#ffffff"
     bordercolor="#666666"
     borderopacity="1.0"
     gridtolerance="10000"
     guidetolerance="10"
     objecttolerance="10"
     inkscape:pageopacity="0.0"
     inkscape:pageshadow="2"
     inkscape:zoom="2.8565217"
     inkscape:cx="230"
     inkscape:cy="80"
     inkscape:document-units="px"
     inkscape:current-layer="layer1"
     inkscape:window-width="1400"
     inkscape:window-height="992"
     inkscape:window-x="0"
     inkscape:window-y="0"
     width="440px"
     height="160px" />
  <metadata
     id="metadata3155">
    <rdf:RDF>
      <cc:Work
         rdf:about="">
        <dc:format>image/svg+xml</dc:format>
        <dc:type
           rdf:resource="http://purl.org/dc/dcmitype/StillImage" />
      </cc:Work>
    </rdf:RDF>
  </metadata>
  <g
     inkscape:label="Layer 1"
     inkscape:groupmode="layer"
     id="layer1"
     transform="translate(-0.807105,-12.373107)">
    <path
       transform="matrix(0.8477424,0,0,0.8477424,-632.54066,-42.840137)"
       d="M 911.66665,100 A 18.333334,18.333334 0 1 1 874.99998,100 A 18.333334,18.333334 0 1 1 911.66665,100 z"
       sodipodi:ry="18.333334"
       sodipodi:rx="18.333334"
       sodipodi:cy="100"
       sodipodi:cx="893.33331"
       id="path4499"
       style="fill:#000000;fill-opacity:1;stroke:none;stroke-width:1;stroke-miterlimit:4;stroke-dasharray:none;stroke-opacity:1;display:inline;filter:url(#filter3761)"
       sodipodi:type="arc"
       inkscape:export-filename="/home/bernie/software/sidux-art/gaia/ksplash-logo.png"
       inkscape:export-xdpi="90"
       inkscape:export-ydpi="90" />
    <g
       transform="matrix(0.9703666,0,0,0.9703666,-19.192898,23.620323)"
       id="g4501"
       style="fill:#000000;fill-opacity:1;display:inline;filter:url(#filter3611)"
       inkscape:export-filename="/home/bernie/software/sidux-art/gaia/ksplash-logo.png"
       inkscape:export-xdpi="90"
       inkscape:export-ydpi="90">
      <g
         inkscape:label="Layer 1"
         id="g4503"
         style="fill:#000000;fill-opacity:1;display:inline"
         transform="translate(-109.43584,-265.50752)">
        <path
           inkscape:export-ydpi="90"
           inkscape:export-xdpi="90"
           inkscape:export-filename="/home/bgray/software/sidux-art/svg-core/sidux-logo.png"
           sodipodi:nodetypes="ccccccssccccsccccccccsccccscccccccccccccccccccccccccccccscsccccccccscccccccccscccccccccccccccccccccccccccccccc"
           id="path4505"
           d="M 152.75671,385.80933 L 152.75671,404.83584 C 152.75671,406.04388 153.36073,406.64789 154.56876,406.64789 L 215.27239,406.64789 C 219.50044,406.64789 222.94333,405.62107 225.60107,403.56742 C 228.25867,401.39295 230.31233,398.8561 231.76203,395.95681 C 234.41962,390.88308 235.74846,385.50734 235.74855,379.82957 C 235.74846,373.30623 235.20484,367.93049 234.1177,363.70234 C 233.03039,359.47426 231.39955,356.15219 229.22517,353.73607 C 227.05064,351.19926 224.21176,349.38721 220.70854,348.29992 C 217.32598,347.21275 213.21868,346.66913 208.38661,346.66908 L 183.92395,346.66908 C 178.48778,346.66913 175.7697,344.25307 175.76973,339.42088 C 175.7697,334.83043 178.48778,332.53517 183.92395,332.5351 L 229.94999,332.5351 C 231.15795,332.53517 231.76196,331.93115 231.76203,330.72304 L 231.76203,311.87774 C 231.76196,310.549 231.15795,309.88459 229.94999,309.88449 L 189.90372,309.88449 C 183.50111,309.88459 178.06497,310.3074 173.59527,311.15292 C 164.53502,312.60265 158.67606,316.95157 156.0184,324.19967 C 154.56876,328.06545 153.84394,333.07878 153.84395,339.23968 C 153.84394,348.17918 155.65599,355.06495 159.28008,359.89703 C 161.09212,362.43395 163.50819,364.4272 166.52828,365.8768 C 169.66915,367.32647 173.47445,368.05129 177.94419,368.05125 L 205.66853,368.05125 C 210.74222,368.05129 213.27908,370.46735 213.27914,375.29945 C 213.27908,381.09803 210.74222,383.99731 205.66853,383.99728 L 154.56876,383.99728 C 153.36073,383.99731 152.75671,384.60131 152.75671,385.80933 M 247.4218,403.3862 C 247.4218,405.56066 248.02581,406.64789 249.23385,406.64789 L 268.26035,406.64789 C 269.46837,406.64789 270.07237,405.56066 270.07241,403.3862 L 270.07241,312.78376 C 270.07237,310.85101 269.46837,309.88459 268.26035,309.88449 L 249.23385,309.88449 C 248.02581,309.88459 247.4218,310.85101 247.4218,312.78376 L 247.4218,403.3862 M 349.297,308.07243 L 349.297,276.18038 C 349.29693,274.48926 349.96136,273.64364 351.29026,273.64351 L 370.13557,273.64351 C 371.3435,273.64364 371.94752,274.48926 371.94761,276.18038 L 371.94761,403.3862 C 371.94752,405.56066 371.3435,406.64789 370.13557,406.64789 L 316.68013,406.64789 C 302.90852,406.64789 292.57986,400.78894 285.69408,389.07102 C 280.62035,380.37321 278.32509,370.34655 278.8083,358.99101 C 279.53312,345.2195 281.76797,335.19284 285.51289,328.911 C 292.88187,316.34755 302.90852,310.06579 315.59289,310.06569 L 347.48495,309.88449 C 348.69292,309.88459 349.29693,309.28057 349.297,308.07243 M 349.297,334.52834 C 349.29693,333.19959 348.69292,332.53517 347.48495,332.5351 L 327.37121,332.5351 C 317.58611,332.53517 311.48555,333.7432 309.06952,336.15919 C 306.65342,338.57533 304.78098,341.71621 303.45217,345.58185 C 302.1233,349.0852 301.45889,353.55492 301.45891,358.99101 C 301.45889,365.75603 302.96892,371.37337 305.98903,375.84306 C 309.61311,381.27924 316.74049,383.99731 327.37121,383.99728 L 347.48495,383.99728 C 348.69292,383.99731 349.29693,383.39329 349.297,382.18523 L 349.297,334.52834 M 440.15678,315.32064 L 440.15678,376.74908 C 440.15672,378.92358 438.34467,380.79602 434.72063,382.36644 C 431.33808,383.81609 427.23078,384.54091 422.39869,384.54089 C 417.32493,384.54091 413.15722,383.81609 409.89556,382.36644 C 406.15063,380.67521 404.27819,378.80277 404.27821,376.74908 L 404.27821,315.32064 C 404.27819,312.66306 403.67417,311.33422 402.46617,311.33412 L 383.98326,311.33412 C 382.77523,311.33422 382.17121,312.66306 382.17122,315.32064 L 382.17122,384.54089 C 382.17121,388.40662 383.37924,391.7287 385.79531,394.50716 C 390.38583,399.94332 397.69441,403.56742 407.72111,405.37946 C 412.43239,406.22508 417.32493,406.64789 422.39869,406.64789 C 427.23078,406.64789 432.0025,406.22508 436.71389,405.37946 C 446.86129,403.56742 454.23029,399.94332 458.82087,394.50716 C 461.11605,391.7287 462.26369,388.40662 462.26377,384.54089 L 462.26377,315.32064 C 462.26369,312.66306 461.65967,311.33422 460.45173,311.33412 L 441.96883,311.33412 C 440.76072,311.33422 440.15672,312.66306 440.15678,315.32064 M 561.09657,404.29223 L 533.37223,360.98426 C 531.56013,358.32664 531.62053,355.54816 533.55344,352.64883 L 559.64695,311.51533 C 560.37168,310.3074 560.19046,309.70337 559.10333,309.70328 L 533.91585,309.70328 C 532.34535,309.70337 531.19771,310.3074 530.47295,311.51533 L 520.14428,328.911 C 518.09057,332.41437 515.97652,332.41437 513.8021,328.911 L 503.29223,311.51533 C 502.56736,310.3074 501.48014,309.70337 500.03053,309.70328 L 474.66185,309.70328 C 473.57461,309.70337 473.39342,310.3074 474.11823,311.51533 L 500.39295,352.64883 C 502.32576,355.54816 502.38616,358.32664 500.57414,360.98426 L 472.48739,404.83584 C 471.76257,405.92308 471.82297,406.46669 472.6686,406.46669 L 496.40643,406.46669 C 497.85604,406.46669 498.88288,405.98348 499.48692,405.01704 L 513.98331,382.54764 C 515.91612,379.52759 517.84896,379.52759 519.78187,382.54764 L 534.45946,405.01704 C 535.06341,405.98348 536.02984,406.46669 537.35874,406.46669 L 560.91537,406.46669 C 562.00251,406.46669 562.06291,405.74186 561.09657,404.29223"
           style="font-size:156px;font-style:normal;font-weight:bold;fill:#000000;fill-opacity:1;stroke:#000000;stroke-width:3.4000001;stroke-linecap:butt;stroke-linejoin:miter;stroke-miterlimit:4;stroke-dasharray:none;stroke-opacity:1;font-family:Sidux" />
      </g>
      <g
         id="g4511"
         inkscape:label="dark"
         style="opacity:0.75925927;fill:#000000;fill-opacity:1;display:none"
         transform="translate(-109.43584,-265.50752)">
        <path
           style="font-size:156px;font-style:normal;font-weight:bold;opacity:0.98518521;fill:#000000;fill-opacity:1;stroke:none;stroke-width:3.9000001;stroke-linecap:butt;stroke-linejoin:miter;stroke-miterlimit:4;stroke-dasharray:none;stroke-opacity:1;filter:url(#filter3529);font-family:Sidux"
           d="M 365.00825,280.50902 L 363.9375,397.375 C 363.93742,399.54946 363.33293,400.65625 362.125,400.65625 L 308.6875,400.65625 C 302.16525,400.65625 296.41527,399.31581 291.4375,396.6875 C 297.90106,403.32065 306.32609,406.65625 316.6875,406.65625 L 370.125,406.65625 C 371.33293,406.65625 371.93742,405.54946 371.9375,403.375 L 371.9375,276.1875 C 371.93741,274.49638 371.33294,273.65637 370.125,273.65625 L 365.00825,280.50902 z M 497.84375,309.71875 L 505.8125,322.90625 C 507.61459,325.80973 509.34332,326.28413 511.0625,324.375 L 503.28125,311.5 C 502.55637,310.29208 501.48086,309.71884 500.03125,309.71875 L 497.84375,309.71875 z M 546.9871,317.64534 L 527.54415,347.15166 C 525.61124,350.05099 523.56288,352.31114 525.375,354.96875 L 553.09375,398.28125 C 554.06009,399.73088 553.99342,400.46877 552.90625,400.46875 L 535.97419,400.61789 L 534.46875,405.03125 C 535.07269,405.9977 536.01485,406.46875 537.34375,406.46875 L 560.90625,406.46875 C 561.99342,406.46877 562.06009,405.73088 561.09375,404.28125 L 533.375,360.96875 C 531.56288,358.31114 531.62959,355.55558 533.5625,352.65625 L 559.65625,311.5 C 560.38096,310.29208 560.18088,309.71884 559.09375,309.71875 L 546.9871,317.64534 z M 225.03489,314.80043 L 223.75,324.71875 C 223.74993,325.92686 223.14545,326.53132 221.9375,326.53125 L 175.9375,326.53125 C 171.24703,328.91755 171.06229,332.84258 171.21146,337.28388 C 171.37272,342.08505 167.19003,341.67214 172.56268,341.70023 C 172.51975,341.30896 175.03555,343.71331 175.03555,343.28388 C 175.03552,338.69344 178.50133,332.53132 183.9375,332.53125 L 229.9375,332.53125 C 231.14545,332.53132 231.74993,331.92686 231.75,330.71875 L 231.75,311.875 C 231.74994,310.54625 231.14546,309.8751 229.9375,309.875 L 225.03489,314.80043 z M 262.70495,315.87118 L 262.0625,397.375 C 262.06246,399.54946 261.45802,400.65625 260.25,400.65625 L 252.97413,401.2987 L 251.04679,404.01745 C 247.83455,405.76361 248.01071,406.65625 249.21875,406.65625 L 268.25,406.65625 C 269.45802,406.65625 270.06246,405.54946 270.0625,403.375 L 270.0625,312.78125 C 270.06245,310.84851 269.45802,309.8751 268.25,309.875 L 262.70495,315.87118 z M 396.70955,316.91163 L 396.28125,370.75 C 397.62538,373.90345 397.41488,375.79677 399.81567,378.22119 C 400.58264,378.56207 401.64365,379.67758 402.51082,379.9383 C 403.95116,381.48041 405.76749,381.87526 405.76749,381.70412 L 404.28125,315.3125 C 404.28124,312.65491 403.67675,311.34385 402.46875,311.34375 L 396.70955,316.91163 z M 454.6783,316.91163 L 454.25,378.53125 C 454.24992,382.39698 453.10769,385.72153 450.8125,388.5 C 446.22192,393.93616 438.86614,397.56296 428.71875,399.375 C 424.00736,400.22062 419.23835,400.65625 414.40625,400.65625 C 409.33249,400.65625 404.43004,400.22062 399.71875,399.375 C 394.52699,398.43674 390.07801,397.00368 386.34375,395.09375 C 390.95849,400.192 398.07175,403.63158 407.71875,405.375 C 412.43004,406.22062 417.33249,406.65625 422.40625,406.65625 C 427.23835,406.65625 432.00736,406.22062 436.71875,405.375 C 446.86614,403.56296 454.22192,399.93616 458.8125,394.5 C 461.10769,391.72153 462.24992,388.39698 462.25,384.53125 L 462.25,315.3125 C 462.24993,312.65491 461.64544,311.34385 460.4375,311.34375 L 454.6783,316.91163 z M 319.375,326.53125 C 309.58989,326.53132 303.47853,327.74026 301.0625,330.15625 C 298.6464,332.5724 296.76631,335.72811 295.4375,339.59375 C 294.10862,343.0971 293.46873,347.56391 293.46875,353 C 293.46872,359.76503 294.97989,365.37406 298,369.84375 C 299.81664,372.56876 302.51651,374.60972 306.09375,375.96875 C 306.06458,375.92599 306.02873,375.88685 306,375.84375 C 302.97989,371.37406 301.46872,365.76503 301.46875,359 C 301.46873,353.56391 302.10862,349.0971 303.4375,345.59375 C 304.76631,341.72811 306.92033,339.3942 309.33643,336.97805 C 311.75246,334.56206 317.58989,332.53132 327.375,332.53125 L 349.14442,333.89645 L 349.96622,331.08349 C 349.87484,328.659 347.62678,327.7139 344.22734,326.89203 L 319.375,326.53125 z M 222.0625,348.78125 C 223.81332,351.08165 225.1856,354.0346 226.125,357.6875 C 227.21214,361.91565 227.74991,367.32042 227.75,373.84375 C 227.74991,379.52152 226.4076,384.89501 223.75,389.96875 C 222.3003,392.86804 220.25135,395.38804 217.59375,397.5625 C 214.93601,399.61615 211.50931,400.65625 207.28125,400.65625 L 160.45937,401.2987 L 157.24713,403.55886 C 153.82075,405.40933 153.35447,406.65625 154.5625,406.65625 L 215.28125,406.65625 C 219.50931,406.65625 222.93601,405.61615 225.59375,403.5625 C 228.25135,401.38804 230.3003,398.86804 231.75,395.96875 C 234.4076,390.89501 235.74991,385.52152 235.75,379.84375 C 235.74991,373.32042 235.21214,367.91565 234.125,363.6875 C 233.03768,359.45943 231.39313,356.16612 229.21875,353.75 C 227.33041,351.54705 224.9528,349.8911 222.0625,348.78125 z M 159.59375,360.3125 C 161.36864,362.65203 163.67842,364.50568 166.53125,365.875 C 169.67213,367.32467 173.46776,368.06254 177.9375,368.0625 L 205.21875,368.0625 C 204.80788,364.05108 202.27905,362.06255 197.65625,362.0625 L 169.9375,362.0625 C 165.95511,362.06254 162.52126,361.46328 159.59375,360.3125 z M 508.72586,378.15888 C 506.71545,381.43995 504.99635,384.59741 504.02994,386.10743 L 495.22849,400.52265 C 491.93994,400.44511 489.85586,400.46877 488.40625,400.46875 L 483.27043,400.89705 L 480.85182,401.86096 C 478.03903,403.84303 476.58309,404.08252 472.65625,406.46875 L 496.40625,406.46875 C 497.85586,406.46877 498.89596,405.99769 499.5,405.03125 L 513.96875,382.5625 C 514.27575,382.08281 514.59925,381.67106 514.90625,381.34375 L 517.00114,379.54529 C 513.79758,377.88612 511.33283,377.71146 508.72586,378.15888 z"
           id="path4513"
           sodipodi:nodetypes="ccccccccccccccccccccccccccccccccccccscscccccccccccccccccccccccccccccscccscccccccscsccsscsccccccsscccccccccsscccccccccccccccccccccc"
           inkscape:export-filename="/home/bgray/software/sidux-art/svg-core/sidux-logo.png"
           inkscape:export-xdpi="90"
           inkscape:export-ydpi="90" />
      </g>
      <g
         id="g4515"
         inkscape:label="light"
         style="opacity:0.76074075;fill:#000000;fill-opacity:1;display:none"
         transform="translate(-109.43584,-265.50752)">
        <path
           style="font-size:156px;font-style:normal;font-weight:bold;opacity:0.5987261;fill:#000000;fill-opacity:1;stroke:none;stroke-width:3.9000001;stroke-linecap:butt;stroke-linejoin:miter;stroke-miterlimit:4;stroke-dasharray:none;stroke-opacity:1;filter:url(#filter3517);font-family:Sidux"
           d="M 351.28125,273.65625 C 349.95235,273.65638 349.31243,274.49637 349.3125,276.1875 L 349.3125,308.0625 C 349.31243,309.27064 348.70797,309.8751 347.5,309.875 L 315.59375,310.0625 C 302.90938,310.0626 292.86899,316.34279 285.5,328.90625 C 281.75508,335.18809 279.53733,345.2285 278.8125,359 C 278.32929,370.35554 280.61376,380.3647 285.6875,389.0625 C 287.81449,392.68211 290.2785,395.74847 293.0625,398.25 C 292.61871,397.5813 292.19962,396.89946 291.78125,396.1875 C 286.70752,387.48968 284.39179,377.44929 284.875,366.09375 C 285.59981,352.32224 286.95399,340.82169 290.69891,334.53985 C 297.15775,324.70682 303.35877,322.47632 321.6875,317.1875 L 353.5625,317 C 354.77048,317.00012 356.28506,310.0247 356.28513,308.81656 L 356.28513,288.28699 C 356.28505,286.59588 356.0461,280.75013 357.375,280.75 L 364.22813,280.3217 L 367.22622,277.68654 C 368.51102,275.78127 371.33294,273.65637 370.125,273.65625 L 351.28125,273.65625 z M 476.48077,310.9407 C 475.72762,311.07289 475.69031,311.66501 476.32452,312.72195 L 501.99479,351.67869 C 505.76054,356.89973 503.71867,359.53308 501.90665,362.1907 L 476.56883,401.41736 C 475.844,402.50459 471.81062,406.46875 472.65625,406.46875 L 481.14542,401.08601 L 504.70112,368.82692 C 505.65654,365.3127 506.2677,361.11971 504.67908,357.66205 L 480.1875,318.625 C 479.46269,317.41707 479.66276,316.81258 480.75,316.8125 L 506.125,316.8125 C 506.26108,316.81251 497.1619,316.61895 497.29159,316.6296 L 498.99827,313.85564 C 499.73973,313.62528 500.13671,312.77372 500.64223,311.18509 L 476.85577,310.9407 C 476.71986,310.94071 476.58836,310.92182 476.48077,310.9407 z M 534.32131,311.42948 C 533.03964,311.56167 532.32486,312.39819 531.44631,313.21073 L 521.3782,329.51723 C 520.39383,331.19643 518.16834,331.46177 517.15625,331.53125 L 519.875,336.03125 C 522.6604,336.23535 525.38697,332.08072 526.82973,330.89905 L 534.72957,316.91427 C 535.45433,315.70634 538.4295,316.81258 540,316.8125 L 546.64454,315.52761 L 551.73273,312.78489 C 554.81308,311.14868 553.21575,312.04055 556.28326,311.18509 L 534.88381,311.42948 C 534.6875,311.42949 534.50441,311.4106 534.32131,311.42948 z M 190.20453,311.06812 C 183.80192,311.06822 177.91431,311.80213 173.44461,312.64765 C 164.38435,314.09738 160.03117,317.53596 157.37351,324.78406 C 155.92387,328.64983 155.48428,333.0891 155.48429,339.25 C 155.48428,348.18949 156.85028,354.17933 160.47437,359.01141 C 161.64957,360.65673 161.87918,362.96828 163.5625,364.15625 C 161.13513,359.59122 159.93749,353.65989 159.9375,346.34375 C 159.93749,340.18285 160.64411,335.17829 162.09375,331.3125 C 165.96747,325.45254 168.80699,321.52001 179.6875,318.25 C 184.1572,317.40448 189.59739,317.00012 196,317 L 223.61233,316.35755 L 226.61042,313.58819 C 228.32355,312.25944 230.5489,311.32826 229.34094,311.32816 L 190.20453,311.06812 z M 249.21875,309.875 C 248.0107,309.8751 247.40625,310.8485 247.40625,312.78125 L 247.40625,403.375 C 247.40625,405.54946 248.01071,406.65625 249.21875,406.65625 L 252.42925,402.15912 L 253.5,319.90625 C 253.5,317.9735 254.10447,317.00012 255.3125,317 L 262.56728,316.35755 L 265.77952,313.4237 C 267.70681,311.49096 269.45802,309.8751 268.25,309.875 L 249.21875,309.875 z M 384.45753,312.81009 C 383.24951,312.8102 383.86697,312.65492 383.86698,315.3125 L 384.11138,385.14223 C 384.11136,389.00796 384.88629,390.46588 387.30236,393.24434 C 388.414,394.56076 388.12715,394.42129 389.55757,395.52519 C 388.64998,393.56431 389.16012,394.48064 389.16013,392.11132 L 388.25,322.4375 C 388.24999,319.77992 388.61008,316.11589 389.69591,317.45994 L 397.85678,316.81749 L 400.21242,315.09835 C 401.28315,313.9398 403.18797,312.81019 401.97997,312.81009 L 384.45753,312.81009 z M 442.82412,312.93229 C 441.616,312.9324 441.62253,312.77712 441.62259,315.4347 L 441.86698,376.99439 C 441.13376,380.02426 438.95377,381.41556 435.57412,383.84134 C 432.19156,385.29097 427.48273,386.242 422.65064,386.24198 C 417.81472,386.242 412.70936,384.97919 409.51963,383.66226 L 407.19792,383.50841 C 407.1979,385.5621 412.22382,387.77752 415.96875,389.46875 C 419.23041,390.9184 423.39498,390.43433 428.46875,390.4343 C 433.30084,390.43432 436.57458,389.20767 439.95713,387.75802 C 443.58117,384.90271 444.72187,384.1197 446.00561,381.88718 L 446.25,322.4375 C 446.24994,319.77992 446.85439,318.4376 448.0625,318.4375 L 455.18308,317.5809 L 457.53872,315.3125 C 459.46599,313.29736 461.64544,311.34385 460.4375,311.34375 L 442.82412,312.93229 z M 349.49512,333.81234 L 349.3125,382.1875 C 349.31243,383.39556 348.70797,384.00003 347.5,384 L 327.375,384 C 320.12376,384.00002 312.50965,384.23424 308.51835,378.73251 C 308.98878,379.68079 314.94743,384.58305 315.53038,385.44581 C 322.62234,390.38658 322.80678,391.09378 333.4375,391.09375 L 353.5625,391.09375 C 354.77048,391.09379 355.37493,390.52056 355.375,389.3125 L 355.28369,332.85913 C 355.28361,331.53039 354.67916,330.89045 353.47119,330.89038 L 349.49512,333.81234 z M 176.773,345.93469 C 181.24716,352.55656 184.86211,352.14076 190.29828,352.14071 L 214.46875,353.78125 C 219.30082,353.7813 222.05643,352.52942 226.78125,355.40625 C 228.73999,356.01418 230.48789,356.87642 232.03125,357.9375 C 231.22719,356.32 229.53775,355.23135 228.47305,354.04828 C 226.29852,351.51146 223.77455,350.44377 220.27133,349.35648 C 216.88877,348.2693 213.05793,347.25286 208.22586,347.25281 L 183.63922,347.25281 C 182.89661,347.25282 177.41416,346.02486 176.773,345.93469 z M 212.78584,368.80964 C 212.78593,368.83035 214.47437,376.0374 214.47437,376.0582 C 214.47431,381.85679 210.28252,384.14917 205.50711,385.34226 L 155.3082,385.19312 C 154.10017,385.19315 152.75,384.60448 152.75,385.8125 L 152.75,404.84375 C 152.75,406.05178 154.63936,404.72891 155.84739,402.80157 L 158.6296,400.44592 L 158.84375,392.90625 C 158.84375,391.69823 159.44822,391.09379 160.65625,391.09375 L 208.28212,390.10293 C 216.32828,386.63507 216.89787,386.22318 217.39335,379.92919 C 217.73196,375.62796 216.83086,373.7305 212.78584,368.80964 z M 522.96875,387.40625 L 534.46875,405.03125 C 534.98405,405.85586 535.76942,406.28523 536.8125,406.40625 L 525.875,389.65625 C 524.90855,388.14622 523.93518,387.40625 522.96875,387.40625 z"
           id="path4517"
           sodipodi:nodetypes="ccccccccccccccccccccccccccccccccccccccccccccccccccccccsccsccccccccccccccccccccccccccccccccccscccscccccccccccccccccccccccccccccccscccccccccscccccc"
           inkscape:export-filename="/home/bgray/software/sidux-art/svg-core/sidux-logo.png"
           inkscape:export-xdpi="90"
           inkscape:export-ydpi="90" />
      </g>
      <g
         id="g4519"
         inkscape:label="ring"
         style="fill:#000000;fill-opacity:1;display:none"
         transform="translate(-109.43584,-265.50752)">
        <path
           sodipodi:type="arc"
           style="opacity:0.94267518;fill:#000000;fill-opacity:1;stroke:url(#linearGradient4845);stroke-width:3.9000001;stroke-miterlimit:4;stroke-dasharray:none;stroke-opacity:1;display:inline;filter:url(#filter9010)"
           id="path4521"
           sodipodi:cx="170.71577"
           sodipodi:cy="235.65385"
           sodipodi:rx="96.974648"
           sodipodi:ry="40.911179"
           d="M 178.79371,194.88486 A 96.974648,40.911179 0 1 1 155.19183,195.27028"
           transform="matrix(0.8064353,-0.5212764,0.616548,0.1038381,-90.024046,382.00476)"
           sodipodi:start="4.7957851"
           sodipodi:end="10.8348"
           sodipodi:open="true"
           inkscape:export-filename="/home/bgray/software/sidux-art/svg-core/sidux-logo.png"
           inkscape:export-xdpi="90"
           inkscape:export-ydpi="90" />
      </g>
      <g
         id="g4523"
         inkscape:label="planet"
         style="fill:#000000;fill-opacity:1;display:none"
         transform="translate(-109.43584,-265.50752)">
        <path
           style="opacity:1;fill:#000000;fill-opacity:1;stroke:none;stroke-opacity:1;display:inline;filter:url(#filter6192)"
           d="M 60.755894,368.54772 C 70.063305,369.32572 76.985719,377.51099 76.207713,386.8184 C 75.429707,396.12581 67.244441,403.04822 57.93703,402.27022 C 48.62962,401.49221 41.707205,393.30694 42.485212,383.99953 C 43.142282,376.1389 48.851537,369.96986 56.637857,368.70712"
           id="path4525"
           transform="matrix(0.8823588,0,0,0.8823588,205.95193,-50.149152)"
           inkscape:export-filename="/home/bgray/software/sidux-art/svg-core/sidux-logo.png"
           inkscape:export-xdpi="90"
           inkscape:export-ydpi="90" />
        <g
           style="opacity:1;fill:#000000;fill-opacity:1;display:inline"
           id="g4527"
           transform="translate(-113.59653,57.366238)">
          <path
             style="fill:#000000;fill-opacity:1;filter:url(#filter6664)"
             d="M 366.67158,245.41067 C 361.23794,243.58903 358.0787,239.38194 357.62729,233.36661 C 356.87171,223.29797 363.07839,217.11264 373.17625,217.87116 C 377.68136,218.20956 379.0486,218.82171 382.08804,221.86115 C 385.13036,224.90346 385.73841,226.26358 386.07217,230.77294 C 386.50469,236.61662 384.46712,241.1658 380.15245,243.9896 C 377.0401,246.02653 370.54945,246.71073 366.67158,245.41067 z"
             id="path4529" />
          <path
             style="fill:#000000;fill-opacity:1"
             d="M 364.38473,244.31517 C 360.53126,242.36529 357.35418,236.88562 357.35845,232.1966 C 357.37172,217.629 376.74597,212.34715 384.36011,224.83534 C 387.90231,230.645 386.29497,239.13651 380.84103,243.42658 C 377.65163,245.93536 368.55714,246.42644 364.38473,244.31517 z"
             id="path4531" />
          <path
             style="fill:#000000;fill-opacity:1;filter:url(#filter6712)"
             d="M 364.6244,244.11189 C 358.35217,241.38518 355.73231,233.4132 358.74157,226.21102 C 360.34839,222.36535 365.48252,218.32256 367.68579,219.16803 C 368.51774,219.48728 370.15563,219.23621 371.32554,218.61009 C 376.71153,215.7276 386.35471,223.86609 386.35471,231.29418 C 386.35471,235.48939 383.96592,240.37914 380.48534,243.30852 C 377.36023,245.93873 369.71717,246.32586 364.6244,244.11189 z"
             id="path4533" />
          <path
             style="fill:#000000;fill-opacity:1"
             d="M 364.68019,244.13535 C 358.86895,241.60759 356.04312,234.09866 358.31382,227.21836 C 359.60956,223.29225 363.957,219.22789 366.01577,220.01791 C 366.72908,220.29164 368.71016,219.92801 370.41815,219.20985 C 374.73629,217.39421 377.94677,218.27357 381.91413,222.35863 C 387.81223,228.43171 387.74422,234.94382 381.71297,241.61969 C 378.40017,245.28656 377.7243,245.59145 372.98835,245.55534 C 370.16485,245.53381 366.42617,244.89481 364.68019,244.13535 z M 382.74842,232.53381 C 383.51037,227.76885 383.19163,227.07863 379.29993,225.06615 C 374.31984,222.49085 368.42126,225.51817 371.81217,228.90908 C 372.56703,229.66394 373.11041,231.07968 373.01968,232.05518 C 372.90214,233.31888 373.68774,233.92377 375.75222,234.15914 C 377.34585,234.34084 379.12335,234.96312 379.70222,235.54199 C 381.48702,237.32679 382.07481,236.74632 382.74842,232.53381 z"
             id="path4535" />
          <path
             style="fill:#000000;fill-opacity:1"
             d="M 364.54707,243.91889 C 361.02074,242.18107 357.33951,236.2593 357.37667,232.38432 C 357.432,226.61546 363.50728,218.33467 366.38121,220.11086 C 366.92305,220.44573 368.87081,220.17571 370.70957,219.5108 C 375.13956,217.9089 378.90913,218.9832 382.44601,222.85559 C 387.84162,228.76302 387.06674,237.0061 380.58046,242.70113 C 377.92928,245.0289 376.36341,245.59003 372.56991,245.57171 C 369.97655,245.55919 366.36627,244.81542 364.54707,243.91889 z M 376.60471,237.88875 C 375.36721,237.65039 373.34221,237.65039 372.10471,237.88875 C 370.86721,238.1271 371.87971,238.32212 374.35471,238.32212 C 376.82971,238.32212 377.84221,238.1271 376.60471,237.88875 z M 382.96393,233.34448 C 383.88661,229.44055 383.61738,227.59113 381.83571,225.59448 C 381.09955,224.76948 380.44471,223.64448 380.38052,223.09448 C 380.31633,222.54448 379.27177,222.24614 378.05926,222.43149 C 374.00263,223.05163 370.94554,225.07193 370.24668,227.59448 C 369.70045,229.56612 369.533,229.67761 369.45439,228.12197 C 369.35999,226.25403 369.27212,226.26738 367.79678,228.37373 C 366.93991,229.59707 366.54616,231.09524 366.92178,231.703 C 367.40788,232.48953 367.82288,232.455 368.36168,231.58321 C 368.91792,230.68318 369.68027,230.92004 371.23668,232.47645 C 372.43382,233.67359 374.63341,234.59448 376.29569,234.59448 C 377.91323,234.59448 379.51479,235.04448 379.85471,235.59448 C 381.00874,237.46175 382.19345,236.60443 382.96393,233.34448 z"
             id="path4537"
             sodipodi:nodetypes="cssssssccssccsssssssssssc" />
          <path
             style="fill:#000000;fill-opacity:1"
             d="M 367.35471,244.94241 C 360.89845,242.8154 356.64205,236.20681 357.78938,230.09104 C 358.70955,225.18611 362.75404,220.71117 366.17898,220.80855 C 367.69729,220.85172 369.90337,220.37121 371.08139,219.74076 C 373.65744,218.3621 376.33069,218.29371 378.32575,219.55542 C 380.04473,220.64254 379.7218,221.07895 376.45344,222.08565 C 374.47312,222.69562 374.16403,222.53377 374.69028,221.1624 C 375.274,219.64123 375.14009,219.6314 373.11904,221.047 C 371.9039,221.89811 370.1202,222.59448 369.15526,222.59448 C 368.19031,222.59448 366.66369,223.71948 365.76275,225.09448 C 364.86182,226.46948 363.528,227.59448 362.79872,227.59448 C 360.92461,227.59448 359.93066,229.57043 361.17756,230.81733 C 361.909,231.54877 362.73526,231.35679 363.90947,230.18258 C 365.97569,228.11636 366.87525,228.75333 365.50551,231.31272 C 364.00348,234.11928 365.59066,236.04197 367.37074,233.57224 C 368.79514,231.59599 371.01715,230.71362 369.86179,232.58303 C 369.51145,233.14989 369.91285,233.31753 370.80277,232.97604 C 371.65634,232.64849 372.35471,232.87865 372.35471,233.48749 C 372.35471,234.09634 373.60458,234.59448 375.1322,234.59448 C 376.65983,234.59448 378.84463,235.24933 379.98733,236.04971 C 381.95036,237.42467 382.12723,237.2971 383.1938,233.7372 C 383.95483,231.19714 384.01253,228.84941 383.3709,226.53197 C 382.50554,223.40645 382.55122,223.26907 383.87422,225.01821 C 387.78089,230.18325 386.38763,236.49537 379.9564,242.76775 C 377.68502,244.98303 376.17085,245.5774 372.9564,245.51553 C 370.70047,245.47211 368.17971,245.21421 367.35471,244.94241 z M 377.44846,239.54431 C 380.32178,238.00655 378.81256,236.59448 374.29569,236.59448 C 369.89699,236.59448 369.20385,237.73381 372.60471,239.37399 C 375.50086,240.77075 375.17805,240.7594 377.44846,239.54431 z M 366.56117,226.09448 C 366.76244,224.81241 367.76888,223.99506 369.36493,223.81753 C 371.71849,223.55573 371.74529,223.60577 369.85471,224.73207 C 368.75471,225.38738 367.49302,226.41201 367.05095,227.00902 C 366.57333,227.65404 366.37459,227.28296 366.56117,226.09448 z"
             id="path4539" />
          <path
             style="fill:#000000;fill-opacity:1"
             d="M 365.42579,243.84293 C 361.61116,241.8978 358.84942,238.43155 357.96885,234.48374 C 357.44377,232.12971 357.64936,231.90185 360.05959,232.16643 C 361.61693,232.33738 363.21032,231.80663 363.87702,230.89486 C 364.82624,229.59672 365.02138,229.86072 365.02138,232.44304 C 365.02138,237.06499 369.51478,240.91172 374.25419,240.3471 C 376.23447,240.11118 378.64221,239.57219 379.60471,239.14933 C 382.20383,238.00746 381.83553,240.79415 379.04026,243.42017 C 376.16518,246.12116 370.25369,246.30473 365.42579,243.84293 z M 366.93731,235.72813 C 366.64282,235.25163 367.23778,234.10529 368.25944,233.1807 C 369.93591,231.66352 370.26786,231.65049 371.66443,233.04705 C 372.51551,233.89814 374.2565,234.60137 375.53328,234.60979 C 376.81007,234.61821 378.52971,235.06132 379.35471,235.59448 C 380.40593,236.27383 378.85284,236.56844 374.16373,236.57917 C 370.48369,236.58759 367.2318,236.20462 366.93731,235.72813 z M 383.85471,231.16283 C 383.85471,225.44003 384.69974,224.97923 385.77818,230.11394 C 386.16332,231.94768 385.91017,233.82017 385.13353,234.88228 C 384.0378,236.38079 383.85471,235.84829 383.85471,231.16283 z M 359.07464,227.59448 C 359.66452,224.1516 363.07862,220.70952 365.32181,221.29613 C 366.32745,221.55911 368.06894,221.2826 369.19179,220.68167 C 370.37084,220.05066 371.46971,219.97153 371.79284,220.49436 C 372.10056,220.99228 371.03881,221.85756 369.43338,222.41721 C 367.82796,222.97686 365.57849,224.3707 364.43457,225.51462 C 363.29065,226.65854 361.71271,227.59448 360.92803,227.59448 C 360.14336,227.59448 359.30897,228.15698 359.07383,228.84448 C 358.8387,229.53198 358.83906,228.96948 359.07464,227.59448 z"
             id="path4541" />
          <path
             style="fill:#000000;fill-opacity:1"
             d="M 368.99784,244.82608 C 368.73665,244.40345 370.23243,244.2207 372.32179,244.41995 C 374.41116,244.6192 376.42486,244.28999 376.79669,243.68835 C 377.16852,243.08672 377.95129,242.59448 378.53617,242.59448 C 379.20676,242.59448 379.13972,243.14859 378.35471,244.09448 C 377.06705,245.64602 369.85319,246.21006 368.99784,244.82608 z M 362.71503,242.13431 C 360.4343,240.53682 357.70583,234.91002 358.72011,233.89575 C 359.06914,233.54672 359.35471,233.8379 359.35471,234.54282 C 359.35471,235.50316 359.95829,235.42902 361.76215,234.24709 C 363.93314,232.8246 364.2281,232.82217 364.76539,234.22232 C 365.55229,236.27295 364.49724,237.86315 362.78558,237.20633 C 359.9482,236.11752 360.46372,238.53554 363.59512,241.00341 C 367.02447,243.70609 366.29582,244.64239 362.71503,242.13431 z M 371.10471,241.9322 C 371.79221,241.65479 372.91721,241.65479 373.60471,241.9322 C 374.29221,242.20961 373.72971,242.43659 372.35471,242.43659 C 370.97971,242.43659 370.41721,242.20961 371.10471,241.9322 z M 367.829,235.73544 C 366.79597,234.70241 367.43502,233.41132 368.73286,233.90935 C 369.49084,234.20021 370.61584,233.93336 371.23286,233.31634 C 372.062,232.4872 372.35471,232.61362 372.35471,233.80086 C 372.35471,234.89216 372.96987,235.24637 374.27319,234.90555 C 375.32835,234.62962 377.01585,234.87232 378.02319,235.4449 C 379.43768,236.2489 378.53961,236.45449 374.079,236.34783 C 370.90236,236.27188 368.08986,235.9963 367.829,235.73544 z M 384.35471,232.59448 C 384.35471,232.04448 384.83127,231.59448 385.41373,231.59448 C 385.99619,231.59448 386.19463,232.04448 385.85471,232.59448 C 385.51479,233.14448 385.03823,233.59448 384.79569,233.59448 C 384.55315,233.59448 384.35471,233.14448 384.35471,232.59448 z M 384.43366,228.01115 C 384.48164,226.8462 384.7186,226.60925 385.03782,227.40698 C 385.3267,228.12885 385.29117,228.99135 384.95888,229.32365 C 384.62659,229.65594 384.39024,229.06531 384.43366,228.01115 z M 360.35471,225.21692 C 360.35471,223.08532 362.9981,221.39284 365.54967,221.89077 L 367.85471,222.34058 L 365.67391,223.06607 C 364.3565,223.50433 363.70602,224.3464 364.0309,225.19302 C 364.38726,226.1217 363.85789,226.59448 362.4617,226.59448 C 361.30286,226.59448 360.35471,225.97458 360.35471,225.21692 z"
             id="path4543" />
        </g>
        <path
           style="opacity:0.36777781;fill:#000000;fill-opacity:1;stroke:none;stroke-opacity:1;display:inline;filter:url(#filter8125)"
           d="M 258.62749,273.96319 C 266.83997,274.64966 272.94802,281.87201 272.26154,290.08448 C 271.57506,298.29696 264.35272,304.40501 256.14025,303.71853 C 247.92777,303.03205 241.81972,295.8097 242.5062,287.59723 C 243.08597,280.66133 248.12358,275.21802 254.99391,274.10383"
           id="path4545"
           inkscape:export-filename="/home/bgray/software/sidux-art/svg-core/sidux-logo.png"
           inkscape:export-xdpi="90"
           inkscape:export-ydpi="90" />
      </g>
    </g>
    <path
       transform="matrix(0.8477424,0,0,0.8477424,-634.4814,-44.780867)"
       d="M 911.66665,100 A 18.333334,18.333334 0 1 1 874.99998,100 A 18.333334,18.333334 0 1 1 911.66665,100 z"
       sodipodi:ry="18.333334"
       sodipodi:rx="18.333334"
       sodipodi:cy="100"
       sodipodi:cx="893.33331"
       id="path4547"
       style="fill:url(#linearGradient4847);fill-opacity:1;stroke:#000000;stroke-width:2.9000001;stroke-miterlimit:4;stroke-dasharray:none;stroke-opacity:1;display:inline"
       sodipodi:type="arc"
       inkscape:export-filename="/home/bernie/software/sidux-art/gaia/ksplash-logo.png"
       inkscape:export-xdpi="90"
       inkscape:export-ydpi="90" />
    <path
       transform="matrix(0.8477424,0,0,0.8477424,-634.4814,-44.780867)"
       d="M 911.66665,100 A 18.333334,18.333334 0 1 1 874.99998,100 A 18.333334,18.333334 0 1 1 911.66665,100 z"
       sodipodi:ry="18.333334"
       sodipodi:rx="18.333334"
       sodipodi:cy="100"
       sodipodi:cx="893.33331"
       id="path4549"
       style="fill:#dfdbc3;fill-opacity:1;stroke:none;stroke-width:1;stroke-miterlimit:4;stroke-dasharray:none;stroke-opacity:1;display:inline"
       sodipodi:type="arc"
       inkscape:export-filename="/home/bernie/software/sidux-art/gaia/ksplash-logo.png"
       inkscape:export-xdpi="90"
       inkscape:export-ydpi="90" />
    <path
       sodipodi:type="arc"
       style="fill:url(#linearGradient4849);fill-opacity:1;stroke:#ffffff;stroke-width:1;stroke-miterlimit:4;stroke-dasharray:none;stroke-opacity:1;display:inline"
       id="path4551"
       sodipodi:cx="893.33331"
       sodipodi:cy="100"
       sodipodi:rx="18.333334"
       sodipodi:ry="18.333334"
       d="M 911.66665,100 A 18.333334,18.333334 0 1 1 874.99998,100 A 18.333334,18.333334 0 1 1 911.66665,100 z"
       transform="matrix(0.8477424,0,0,0.8477424,-634.4814,-44.780867)"
       inkscape:export-filename="/home/bernie/software/sidux-art/gaia/ksplash-logo.png"
       inkscape:export-xdpi="90"
       inkscape:export-ydpi="90" />
    <g
       id="g4949"
       transform="translate(-219.01207,-577.97989)">
      <path
         inkscape:export-ydpi="90"
         inkscape:export-xdpi="90"
         inkscape:export-filename="/home/bgray/software/sidux-art/svg-core/sidux-logo.png"
         sodipodi:nodetypes="ccccccssccccsccccccccsccccscccccccccccccccccccccccccccccscsccccccccscccccccccscccccccccccccccccccccccccccccccc"
         id="path4557"
         d="M 240.38453,715.71307 L 240.38453,734.17576 C 240.38453,735.348 240.97065,735.93411 242.14288,735.93411 L 301.04766,735.93411 C 305.15042,735.93411 308.49128,734.93772 311.07027,732.94493 C 313.64911,730.83489 315.64191,728.37322 317.04866,725.55984 C 319.62749,720.63647 320.91695,715.42003 320.91704,709.91051 C 320.91695,703.58048 320.38944,698.36404 319.33452,694.26118 C 318.27943,690.1584 316.69692,686.93477 314.58697,684.59025 C 312.47688,682.12861 309.72213,680.37026 306.32272,679.31519 C 303.04039,678.26024 299.05481,677.73273 294.36593,677.73268 L 270.62818,677.73268 C 265.3531,677.73273 262.71557,675.38826 262.7156,670.69927 C 262.71557,666.24485 265.3531,664.0176 270.62818,664.01753 L 315.29031,664.01753 C 316.46248,664.0176 317.04859,663.43148 317.04866,662.25917 L 317.04866,643.97232 C 317.04859,642.68296 316.46248,642.03824 315.29031,642.03814 L 276.43075,642.03814 C 270.21787,642.03824 264.94282,642.44852 260.60557,643.26898 C 251.81381,644.67575 246.12847,648.8958 243.54957,655.92911 C 242.14288,659.68034 241.43954,664.5451 241.43955,670.52344 C 241.43954,679.19803 243.1979,685.87975 246.71459,690.56864 C 248.47293,693.03038 250.81741,694.96456 253.748,696.37121 C 256.7958,697.77792 260.48833,698.48126 264.82562,698.48122 L 291.72839,698.48122 C 296.65173,698.48126 299.11342,700.82572 299.11348,705.51463 C 299.11342,711.14138 296.65173,713.95474 291.72839,713.95472 L 242.14288,713.95472 C 240.97065,713.95474 240.38453,714.54085 240.38453,715.71307 M 332.24437,732.76908 C 332.24437,734.8791 332.83048,735.93411 334.00273,735.93411 L 352.46541,735.93411 C 353.63763,735.93411 354.22373,734.8791 354.22377,732.76908 L 354.22377,644.85149 C 354.22373,642.97602 353.63763,642.03824 352.46541,642.03814 L 334.00273,642.03814 C 332.83048,642.03824 332.24437,642.97602 332.24437,644.85149 L 332.24437,732.76908 M 431.10066,640.27978 L 431.10066,609.3328 C 431.1006,607.69179 431.74534,606.87123 433.03486,606.8711 L 451.32172,606.8711 C 452.49385,606.87123 453.07997,607.69179 453.08006,609.3328 L 453.08006,732.76908 C 453.07997,734.8791 452.49385,735.93411 451.32172,735.93411 L 399.45034,735.93411 C 386.08683,735.93411 376.06425,730.24878 369.38252,718.8781 C 364.45914,710.43804 362.23189,700.7085 362.70078,689.68947 C 363.40413,676.32605 365.57275,666.59652 369.20669,660.50083 C 376.35731,648.30968 386.08683,642.21407 398.39532,642.21397 L 429.34231,642.03814 C 430.51449,642.03824 431.1006,641.45212 431.10066,640.27978 M 431.10066,665.95171 C 431.1006,664.66233 430.51449,664.0176 429.34231,664.01753 L 409.82461,664.01753 C 400.32948,664.0176 394.4097,665.18983 392.06526,667.53423 C 389.72076,669.87877 387.90381,672.92658 386.61437,676.67767 C 385.32488,680.0772 384.68016,684.41447 384.68018,689.68947 C 384.68016,696.25402 386.14544,701.7049 389.07606,706.04213 C 392.59274,711.31722 399.50891,713.95474 409.82461,713.95472 L 429.34231,713.95472 C 430.51449,713.95474 431.1006,713.36862 431.10066,712.19636 L 431.10066,665.95171 M 519.26796,647.3132 L 519.26796,706.9213 C 519.2679,709.03137 517.50955,710.84832 513.9929,712.3722 C 510.71059,713.77889 506.725,714.48224 502.0361,714.48222 C 497.1127,714.48224 493.06849,713.77889 489.90348,712.3722 C 486.26953,710.73109 484.45257,708.91414 484.45259,706.9213 L 484.45259,647.3132 C 484.45257,644.73437 483.86645,643.44491 482.69425,643.44481 L 464.75905,643.44481 C 463.58682,643.44491 463.0007,644.73437 463.00071,647.3132 L 463.00071,714.48222 C 463.0007,718.23339 464.17293,721.45703 466.51741,724.15315 C 470.97189,729.42822 478.06389,732.94493 487.79347,734.70327 C 492.36514,735.52383 497.1127,735.93411 502.0361,735.93411 C 506.725,735.93411 511.35532,735.52383 515.92709,734.70327 C 525.77379,732.94493 532.92442,729.42822 537.37897,724.15315 C 539.60614,721.45703 540.71977,718.23339 540.71984,714.48222 L 540.71984,647.3132 C 540.71977,644.73437 540.13365,643.44491 538.9615,643.44481 L 521.02631,643.44481 C 519.854,643.44491 519.2679,644.73437 519.26796,647.3132 M 636.62389,733.64826 L 609.72112,691.62365 C 607.96272,689.04478 608.02133,686.34864 609.89696,683.53523 L 635.21723,643.62065 C 635.92048,642.44852 635.74463,641.86239 634.68972,641.8623 L 610.24863,641.8623 C 608.72467,641.86239 607.61104,642.44852 606.90776,643.62065 L 596.88516,660.50083 C 594.89231,663.90038 592.8409,663.90038 590.73092,660.50083 L 580.53249,643.62065 C 579.8291,642.44852 578.7741,641.86239 577.36745,641.8623 L 552.75053,641.8623 C 551.69551,641.86239 551.51969,642.44852 552.22302,643.62065 L 577.71913,683.53523 C 579.59466,686.34864 579.65327,689.04478 577.89495,691.62365 L 550.6405,734.17576 C 549.93716,735.23078 549.99577,735.75828 550.81634,735.75828 L 573.85074,735.75828 C 575.25739,735.75828 576.25381,735.28939 576.83995,734.35159 L 590.90676,712.54803 C 592.78229,709.61748 594.65786,709.61748 596.53349,712.54803 L 610.77613,734.35159 C 611.36218,735.28939 612.29998,735.75828 613.5895,735.75828 L 636.44806,735.75828 C 637.50299,735.75828 637.5616,735.05493 636.62389,733.64826"
         style="font-size:156px;font-style:normal;font-weight:bold;fill:#dfdbc3;fill-opacity:1;stroke:#000000;stroke-width:3.29924655;stroke-linecap:butt;stroke-linejoin:miter;stroke-miterlimit:4;stroke-dasharray:none;stroke-opacity:1;font-family:Sidux" />
      <g
         transform="matrix(0.9703666,0,0,0.9703666,90.725952,341.33656)"
         id="g4841">
        <path
           inkscape:export-ydpi="90"
           inkscape:export-xdpi="90"
           inkscape:export-filename="/home/bgray/software/sidux-art/svg-core/sidux-logo.png"
           sodipodi:nodetypes="ccccccssccccsccccccccsccccscccccccccccccccccccccccccccccscsccccccccscccccccccscccccccccccccccccccccccccccccccc"
           id="path4559"
           d="M 154.22891,385.80933 L 154.22891,404.83584 C 154.22891,406.04388 154.83293,406.64789 156.04096,406.64789 L 216.74459,406.64789 C 220.97264,406.64789 224.41553,405.62107 227.07327,403.56742 C 229.73087,401.39295 231.78453,398.8561 233.23423,395.95681 C 235.89182,390.88308 237.22066,385.50734 237.22075,379.82957 C 237.22066,373.30623 236.67704,367.93049 235.5899,363.70234 C 234.50259,359.47426 232.87175,356.15219 230.69737,353.73607 C 228.52284,351.19926 225.68396,349.38721 222.18074,348.29992 C 218.79818,347.21275 214.69088,346.66913 209.85881,346.66908 L 185.39615,346.66908 C 179.95998,346.66913 177.2419,344.25307 177.24193,339.42088 C 177.2419,334.83043 179.95998,332.53517 185.39615,332.5351 L 231.42219,332.5351 C 232.63015,332.53517 233.23416,331.93115 233.23423,330.72304 L 233.23423,311.87774 C 233.23416,310.549 232.63015,309.88459 231.42219,309.88449 L 191.37592,309.88449 C 184.97331,309.88459 179.53717,310.3074 175.06747,311.15292 C 166.00722,312.60265 160.14826,316.95157 157.4906,324.19967 C 156.04096,328.06545 155.31614,333.07878 155.31615,339.23968 C 155.31614,348.17918 157.12819,355.06495 160.75228,359.89703 C 162.56432,362.43395 164.98039,364.4272 168.00048,365.8768 C 171.14135,367.32647 174.94665,368.05129 179.41639,368.05125 L 207.14073,368.05125 C 212.21442,368.05129 214.75128,370.46735 214.75134,375.29945 C 214.75128,381.09803 212.21442,383.99731 207.14073,383.99728 L 156.04096,383.99728 C 154.83293,383.99731 154.22891,384.60131 154.22891,385.80933 M 248.894,403.3862 C 248.894,405.56066 249.49801,406.64789 250.70605,406.64789 L 269.73255,406.64789 C 270.94057,406.64789 271.54457,405.56066 271.54461,403.3862 L 271.54461,312.78376 C 271.54457,310.85101 270.94057,309.88459 269.73255,309.88449 L 250.70605,309.88449 C 249.49801,309.88459 248.894,310.85101 248.894,312.78376 L 248.894,403.3862 M 350.7692,308.07243 L 350.7692,276.18038 C 350.76913,274.48926 351.43356,273.64364 352.76246,273.64351 L 371.60777,273.64351 C 372.8157,273.64364 373.41972,274.48926 373.41981,276.18038 L 373.41981,403.3862 C 373.41972,405.56066 372.8157,406.64789 371.60777,406.64789 L 318.15233,406.64789 C 304.38072,406.64789 294.05206,400.78894 287.16628,389.07102 C 282.09255,380.37321 279.79729,370.34655 280.2805,358.99101 C 281.00532,345.2195 283.24017,335.19284 286.98509,328.911 C 294.35407,316.34755 304.38072,310.06579 317.06509,310.06569 L 348.95715,309.88449 C 350.16512,309.88459 350.76913,309.28057 350.7692,308.07243 M 350.7692,334.52834 C 350.76913,333.19959 350.16512,332.53517 348.95715,332.5351 L 328.84341,332.5351 C 319.05831,332.53517 312.95775,333.7432 310.54172,336.15919 C 308.12562,338.57533 306.25318,341.71621 304.92437,345.58185 C 303.5955,349.0852 302.93109,353.55492 302.93111,358.99101 C 302.93109,365.75603 304.44112,371.37337 307.46123,375.84306 C 311.08531,381.27924 318.21269,383.99731 328.84341,383.99728 L 348.95715,383.99728 C 350.16512,383.99731 350.76913,383.39329 350.7692,382.18523 L 350.7692,334.52834 M 441.62898,315.32064 L 441.62898,376.74908 C 441.62892,378.92358 439.81687,380.79602 436.19283,382.36644 C 432.81028,383.81609 428.70298,384.54091 423.87089,384.54089 C 418.79713,384.54091 414.62942,383.81609 411.36776,382.36644 C 407.62283,380.67521 405.75039,378.80277 405.75041,376.74908 L 405.75041,315.32064 C 405.75039,312.66306 405.14637,311.33422 403.93837,311.33412 L 385.45546,311.33412 C 384.24743,311.33422 383.64341,312.66306 383.64342,315.32064 L 383.64342,384.54089 C 383.64341,388.40662 384.85144,391.7287 387.26751,394.50716 C 391.85803,399.94332 399.16661,403.56742 409.19331,405.37946 C 413.90459,406.22508 418.79713,406.64789 423.87089,406.64789 C 428.70298,406.64789 433.4747,406.22508 438.18609,405.37946 C 448.33349,403.56742 455.70249,399.94332 460.29307,394.50716 C 462.58825,391.7287 463.73589,388.40662 463.73597,384.54089 L 463.73597,315.32064 C 463.73589,312.66306 463.13187,311.33422 461.92393,311.33412 L 443.44103,311.33412 C 442.23292,311.33422 441.62892,312.66306 441.62898,315.32064 M 562.56877,404.29223 L 534.84443,360.98426 C 533.03233,358.32664 533.09273,355.54816 535.02564,352.64883 L 561.11915,311.51533 C 561.84388,310.3074 561.66266,309.70337 560.57553,309.70328 L 535.38805,309.70328 C 533.81755,309.70337 532.66991,310.3074 531.94515,311.51533 L 521.61648,328.911 C 519.56277,332.41437 517.44872,332.41437 515.2743,328.911 L 504.76443,311.51533 C 504.03956,310.3074 502.95234,309.70337 501.50273,309.70328 L 476.13405,309.70328 C 475.04681,309.70337 474.86562,310.3074 475.59043,311.51533 L 501.86515,352.64883 C 503.79796,355.54816 503.85836,358.32664 502.04634,360.98426 L 473.95959,404.83584 C 473.23477,405.92308 473.29517,406.46669 474.1408,406.46669 L 497.87863,406.46669 C 499.32824,406.46669 500.35508,405.98348 500.95912,405.01704 L 515.45551,382.54764 C 517.38832,379.52759 519.32116,379.52759 521.25407,382.54764 L 535.93166,405.01704 C 536.53561,405.98348 537.50204,406.46669 538.83094,406.46669 L 562.38757,406.46669 C 563.47471,406.46669 563.53511,405.74186 562.56877,404.29223"
           style="font-size:156px;font-style:normal;font-weight:bold;fill:#dfdbc3;fill-opacity:1;stroke:#ffffff;stroke-width:1.79999995;stroke-linecap:butt;stroke-linejoin:miter;stroke-miterlimit:4;stroke-dasharray:none;stroke-opacity:1;font-family:Sidux" />
        <path
           id="path4561"
           d="M 352.75179,273.63252 C 351.42289,273.63265 350.78297,274.5039 350.78304,276.19502 L 350.78304,308.07002 C 350.78297,309.27816 350.17852,309.88262 348.97054,309.88252 L 317.06429,310.07002 C 304.37992,310.07012 294.33951,316.35032 286.97054,328.91377 C 283.2432,335.16612 281.01856,345.11691 280.28304,358.78877 C 287.77782,358.64443 295.34712,358.57589 302.93929,358.66377 C 302.96511,353.37309 303.63678,349.00388 304.93929,345.57002 C 306.2681,341.70438 308.11694,338.57991 310.53304,336.16377 C 312.94907,333.74778 319.06045,332.53884 328.84554,332.53877 L 348.97054,332.53877 C 350.17851,332.53884 350.78297,333.21002 350.78304,334.53877 L 350.78304,361.10127 C 358.43031,361.83057 365.9847,362.74349 373.40804,363.85127 L 373.40804,276.19502 C 373.40795,274.5039 372.80346,273.63265 371.59554,273.63252 L 352.75179,273.63252 z M 476.12679,309.69502 C 475.03955,309.69511 474.87073,310.29959 475.59554,311.50752 L 501.87679,352.66377 C 503.80959,355.5631 503.84506,358.31865 502.03304,360.97627 L 494.78304,372.28877 C 510.17106,370.89652 524.70375,368.68877 538.06429,366.03877 L 534.84554,360.97627 C 533.03343,358.31865 533.10013,355.5631 535.03304,352.66377 L 561.12679,311.50752 C 561.85151,310.29959 561.65142,309.69511 560.56429,309.69502 L 535.37679,309.69502 C 533.80629,309.69511 532.66405,310.29959 531.93929,311.50752 L 521.62679,328.91377 C 519.57308,332.41714 517.45746,332.41714 515.28304,328.91377 L 504.75179,311.50752 C 504.02693,310.29959 502.9514,309.69511 501.50179,309.69502 L 476.12679,309.69502 z M 191.37679,309.88252 C 184.97418,309.88262 179.53399,310.31825 175.06429,311.16377 C 166.00404,312.6135 160.15945,316.94692 157.50179,324.19502 C 156.05215,328.0608 155.31428,333.06537 155.31429,339.22627 C 155.31428,348.16577 157.1277,355.05044 160.75179,359.88252 C 162.56383,362.41944 164.9817,364.43292 168.00179,365.88252 C 169.24151,366.45471 170.58629,366.91118 172.03304,367.25752 C 189.60159,364.94857 211.14911,362.56145 234.72054,360.88252 C 233.69285,357.96901 232.3547,355.57683 230.68929,353.72627 C 228.51476,351.18946 225.69251,349.37606 222.18929,348.28877 C 218.80673,347.20161 214.67761,346.66382 209.84554,346.66377 L 185.40804,346.66377 C 179.97187,346.66382 177.25176,344.24596 177.25179,339.41377 C 177.25176,334.82332 179.97187,332.53884 185.40804,332.53877 L 231.40804,332.53877 C 232.616,332.53884 233.22047,331.93438 233.22054,330.72627 L 233.22054,311.88252 C 233.22047,310.55378 232.616,309.88262 231.40804,309.88252 L 191.37679,309.88252 z M 250.72054,309.88252 C 249.51251,309.88262 248.90804,310.85602 248.90804,312.78877 L 248.90804,359.97627 C 256.31432,359.56052 263.87418,359.23831 271.53304,359.00752 L 271.53304,312.78877 C 271.533,310.85602 270.92856,309.88262 269.72054,309.88252 L 250.72054,309.88252 z M 385.47054,311.32002 C 384.26251,311.32012 383.65803,312.66244 383.65804,315.32002 L 383.65804,365.53877 C 386.39141,366.02616 389.09857,366.52212 391.78304,367.07002 C 396.46119,368.02906 401.11914,368.86156 405.75179,369.60127 L 405.75179,315.32002 C 405.75176,312.66244 405.14729,311.32012 403.93929,311.32002 L 385.47054,311.32002 z M 443.43929,311.32002 C 442.23118,311.32012 441.62673,312.66244 441.62679,315.32002 L 441.62679,373.38252 C 449.10863,373.77212 456.48192,373.91743 463.72054,373.85127 L 463.72054,315.32002 C 463.72045,312.66244 463.14723,311.32012 461.93929,311.32002 L 443.43929,311.32002 z"
           style="font-size:156px;font-style:normal;font-weight:bold;fill:url(#linearGradient4955);fill-opacity:1;stroke:none;stroke-width:1;stroke-linecap:butt;stroke-linejoin:miter;stroke-miterlimit:4;stroke-opacity:1;font-family:Sidux" />
      </g>
    </g>
    <g
       id="g4563"
       inkscape:label="dark"
       style="opacity:0.75925927;display:none"
       transform="matrix(0.9703666,0,0,0.9703666,80.399816,208.44842)">
      <path
         style="font-size:156px;font-style:normal;font-weight:bold;opacity:0.98518521;fill:#000000;fill-opacity:1;stroke:none;stroke-width:3.9000001;stroke-linecap:butt;stroke-linejoin:miter;stroke-miterlimit:4;stroke-dasharray:none;stroke-opacity:1;filter:url(#filter3529);font-family:Sidux"
         d="M 365.00825,280.50902 L 363.9375,397.375 C 363.93742,399.54946 363.33293,400.65625 362.125,400.65625 L 308.6875,400.65625 C 302.16525,400.65625 296.41527,399.31581 291.4375,396.6875 C 297.90106,403.32065 306.32609,406.65625 316.6875,406.65625 L 370.125,406.65625 C 371.33293,406.65625 371.93742,405.54946 371.9375,403.375 L 371.9375,276.1875 C 371.93741,274.49638 371.33294,273.65637 370.125,273.65625 L 365.00825,280.50902 z M 497.84375,309.71875 L 505.8125,322.90625 C 507.61459,325.80973 509.34332,326.28413 511.0625,324.375 L 503.28125,311.5 C 502.55637,310.29208 501.48086,309.71884 500.03125,309.71875 L 497.84375,309.71875 z M 546.9871,317.64534 L 527.54415,347.15166 C 525.61124,350.05099 523.56288,352.31114 525.375,354.96875 L 553.09375,398.28125 C 554.06009,399.73088 553.99342,400.46877 552.90625,400.46875 L 535.97419,400.61789 L 534.46875,405.03125 C 535.07269,405.9977 536.01485,406.46875 537.34375,406.46875 L 560.90625,406.46875 C 561.99342,406.46877 562.06009,405.73088 561.09375,404.28125 L 533.375,360.96875 C 531.56288,358.31114 531.62959,355.55558 533.5625,352.65625 L 559.65625,311.5 C 560.38096,310.29208 560.18088,309.71884 559.09375,309.71875 L 546.9871,317.64534 z M 225.03489,314.80043 L 223.75,324.71875 C 223.74993,325.92686 223.14545,326.53132 221.9375,326.53125 L 175.9375,326.53125 C 171.24703,328.91755 171.06229,332.84258 171.21146,337.28388 C 171.37272,342.08505 167.19003,341.67214 172.56268,341.70023 C 172.51975,341.30896 175.03555,343.71331 175.03555,343.28388 C 175.03552,338.69344 178.50133,332.53132 183.9375,332.53125 L 229.9375,332.53125 C 231.14545,332.53132 231.74993,331.92686 231.75,330.71875 L 231.75,311.875 C 231.74994,310.54625 231.14546,309.8751 229.9375,309.875 L 225.03489,314.80043 z M 262.70495,315.87118 L 262.0625,397.375 C 262.06246,399.54946 261.45802,400.65625 260.25,400.65625 L 252.97413,401.2987 L 251.04679,404.01745 C 247.83455,405.76361 248.01071,406.65625 249.21875,406.65625 L 268.25,406.65625 C 269.45802,406.65625 270.06246,405.54946 270.0625,403.375 L 270.0625,312.78125 C 270.06245,310.84851 269.45802,309.8751 268.25,309.875 L 262.70495,315.87118 z M 396.70955,316.91163 L 396.28125,370.75 C 397.62538,373.90345 397.41488,375.79677 399.81567,378.22119 C 400.58264,378.56207 401.64365,379.67758 402.51082,379.9383 C 403.95116,381.48041 405.76749,381.87526 405.76749,381.70412 L 404.28125,315.3125 C 404.28124,312.65491 403.67675,311.34385 402.46875,311.34375 L 396.70955,316.91163 z M 454.6783,316.91163 L 454.25,378.53125 C 454.24992,382.39698 453.10769,385.72153 450.8125,388.5 C 446.22192,393.93616 438.86614,397.56296 428.71875,399.375 C 424.00736,400.22062 419.23835,400.65625 414.40625,400.65625 C 409.33249,400.65625 404.43004,400.22062 399.71875,399.375 C 394.52699,398.43674 390.07801,397.00368 386.34375,395.09375 C 390.95849,400.192 398.07175,403.63158 407.71875,405.375 C 412.43004,406.22062 417.33249,406.65625 422.40625,406.65625 C 427.23835,406.65625 432.00736,406.22062 436.71875,405.375 C 446.86614,403.56296 454.22192,399.93616 458.8125,394.5 C 461.10769,391.72153 462.24992,388.39698 462.25,384.53125 L 462.25,315.3125 C 462.24993,312.65491 461.64544,311.34385 460.4375,311.34375 L 454.6783,316.91163 z M 319.375,326.53125 C 309.58989,326.53132 303.47853,327.74026 301.0625,330.15625 C 298.6464,332.5724 296.76631,335.72811 295.4375,339.59375 C 294.10862,343.0971 293.46873,347.56391 293.46875,353 C 293.46872,359.76503 294.97989,365.37406 298,369.84375 C 299.81664,372.56876 302.51651,374.60972 306.09375,375.96875 C 306.06458,375.92599 306.02873,375.88685 306,375.84375 C 302.97989,371.37406 301.46872,365.76503 301.46875,359 C 301.46873,353.56391 302.10862,349.0971 303.4375,345.59375 C 304.76631,341.72811 306.92033,339.3942 309.33643,336.97805 C 311.75246,334.56206 317.58989,332.53132 327.375,332.53125 L 349.14442,333.89645 L 349.96622,331.08349 C 349.87484,328.659 347.62678,327.7139 344.22734,326.89203 L 319.375,326.53125 z M 222.0625,348.78125 C 223.81332,351.08165 225.1856,354.0346 226.125,357.6875 C 227.21214,361.91565 227.74991,367.32042 227.75,373.84375 C 227.74991,379.52152 226.4076,384.89501 223.75,389.96875 C 222.3003,392.86804 220.25135,395.38804 217.59375,397.5625 C 214.93601,399.61615 211.50931,400.65625 207.28125,400.65625 L 160.45937,401.2987 L 157.24713,403.55886 C 153.82075,405.40933 153.35447,406.65625 154.5625,406.65625 L 215.28125,406.65625 C 219.50931,406.65625 222.93601,405.61615 225.59375,403.5625 C 228.25135,401.38804 230.3003,398.86804 231.75,395.96875 C 234.4076,390.89501 235.74991,385.52152 235.75,379.84375 C 235.74991,373.32042 235.21214,367.91565 234.125,363.6875 C 233.03768,359.45943 231.39313,356.16612 229.21875,353.75 C 227.33041,351.54705 224.9528,349.8911 222.0625,348.78125 z M 159.59375,360.3125 C 161.36864,362.65203 163.67842,364.50568 166.53125,365.875 C 169.67213,367.32467 173.46776,368.06254 177.9375,368.0625 L 205.21875,368.0625 C 204.80788,364.05108 202.27905,362.06255 197.65625,362.0625 L 169.9375,362.0625 C 165.95511,362.06254 162.52126,361.46328 159.59375,360.3125 z M 508.72586,378.15888 C 506.71545,381.43995 504.99635,384.59741 504.02994,386.10743 L 495.22849,400.52265 C 491.93994,400.44511 489.85586,400.46877 488.40625,400.46875 L 483.27043,400.89705 L 480.85182,401.86096 C 478.03903,403.84303 476.58309,404.08252 472.65625,406.46875 L 496.40625,406.46875 C 497.85586,406.46877 498.89596,405.99769 499.5,405.03125 L 513.96875,382.5625 C 514.27575,382.08281 514.59925,381.67106 514.90625,381.34375 L 517.00114,379.54529 C 513.79758,377.88612 511.33283,377.71146 508.72586,378.15888 z"
         id="path4565"
         sodipodi:nodetypes="ccccccccccccccccccccccccccccccccccccscscccccccccccccccccccccccccccccscccscccccccscsccsscsccccccsscccccccccsscccccccccccccccccccccc"
         inkscape:export-filename="/home/bgray/software/sidux-art/svg-core/sidux-logo.png"
         inkscape:export-xdpi="90"
         inkscape:export-ydpi="90" />
    </g>
    <g
       id="g4567"
       inkscape:label="light"
       style="opacity:0.76074075;display:none"
       transform="matrix(0.9703666,0,0,0.9703666,80.399816,208.44842)">
      <path
         style="font-size:156px;font-style:normal;font-weight:bold;opacity:0.5987261;fill:#ffffff;fill-opacity:1;stroke:none;stroke-width:3.9000001;stroke-linecap:butt;stroke-linejoin:miter;stroke-miterlimit:4;stroke-dasharray:none;stroke-opacity:1;filter:url(#filter3517);font-family:Sidux"
         d="M 351.28125,273.65625 C 349.95235,273.65638 349.31243,274.49637 349.3125,276.1875 L 349.3125,308.0625 C 349.31243,309.27064 348.70797,309.8751 347.5,309.875 L 315.59375,310.0625 C 302.90938,310.0626 292.86899,316.34279 285.5,328.90625 C 281.75508,335.18809 279.53733,345.2285 278.8125,359 C 278.32929,370.35554 280.61376,380.3647 285.6875,389.0625 C 287.81449,392.68211 290.2785,395.74847 293.0625,398.25 C 292.61871,397.5813 292.19962,396.89946 291.78125,396.1875 C 286.70752,387.48968 284.39179,377.44929 284.875,366.09375 C 285.59981,352.32224 286.95399,340.82169 290.69891,334.53985 C 297.15775,324.70682 303.35877,322.47632 321.6875,317.1875 L 353.5625,317 C 354.77048,317.00012 356.28506,310.0247 356.28513,308.81656 L 356.28513,288.28699 C 356.28505,286.59588 356.0461,280.75013 357.375,280.75 L 364.22813,280.3217 L 367.22622,277.68654 C 368.51102,275.78127 371.33294,273.65637 370.125,273.65625 L 351.28125,273.65625 z M 476.48077,310.9407 C 475.72762,311.07289 475.69031,311.66501 476.32452,312.72195 L 501.99479,351.67869 C 505.76054,356.89973 503.71867,359.53308 501.90665,362.1907 L 476.56883,401.41736 C 475.844,402.50459 471.81062,406.46875 472.65625,406.46875 L 481.14542,401.08601 L 504.70112,368.82692 C 505.65654,365.3127 506.2677,361.11971 504.67908,357.66205 L 480.1875,318.625 C 479.46269,317.41707 479.66276,316.81258 480.75,316.8125 L 506.125,316.8125 C 506.26108,316.81251 497.1619,316.61895 497.29159,316.6296 L 498.99827,313.85564 C 499.73973,313.62528 500.13671,312.77372 500.64223,311.18509 L 476.85577,310.9407 C 476.71986,310.94071 476.58836,310.92182 476.48077,310.9407 z M 534.32131,311.42948 C 533.03964,311.56167 532.32486,312.39819 531.44631,313.21073 L 521.3782,329.51723 C 520.39383,331.19643 518.16834,331.46177 517.15625,331.53125 L 519.875,336.03125 C 522.6604,336.23535 525.38697,332.08072 526.82973,330.89905 L 534.72957,316.91427 C 535.45433,315.70634 538.4295,316.81258 540,316.8125 L 546.64454,315.52761 L 551.73273,312.78489 C 554.81308,311.14868 553.21575,312.04055 556.28326,311.18509 L 534.88381,311.42948 C 534.6875,311.42949 534.50441,311.4106 534.32131,311.42948 z M 190.20453,311.06812 C 183.80192,311.06822 177.91431,311.80213 173.44461,312.64765 C 164.38435,314.09738 160.03117,317.53596 157.37351,324.78406 C 155.92387,328.64983 155.48428,333.0891 155.48429,339.25 C 155.48428,348.18949 156.85028,354.17933 160.47437,359.01141 C 161.64957,360.65673 161.87918,362.96828 163.5625,364.15625 C 161.13513,359.59122 159.93749,353.65989 159.9375,346.34375 C 159.93749,340.18285 160.64411,335.17829 162.09375,331.3125 C 165.96747,325.45254 168.80699,321.52001 179.6875,318.25 C 184.1572,317.40448 189.59739,317.00012 196,317 L 223.61233,316.35755 L 226.61042,313.58819 C 228.32355,312.25944 230.5489,311.32826 229.34094,311.32816 L 190.20453,311.06812 z M 249.21875,309.875 C 248.0107,309.8751 247.40625,310.8485 247.40625,312.78125 L 247.40625,403.375 C 247.40625,405.54946 248.01071,406.65625 249.21875,406.65625 L 252.42925,402.15912 L 253.5,319.90625 C 253.5,317.9735 254.10447,317.00012 255.3125,317 L 262.56728,316.35755 L 265.77952,313.4237 C 267.70681,311.49096 269.45802,309.8751 268.25,309.875 L 249.21875,309.875 z M 384.45753,312.81009 C 383.24951,312.8102 383.86697,312.65492 383.86698,315.3125 L 384.11138,385.14223 C 384.11136,389.00796 384.88629,390.46588 387.30236,393.24434 C 388.414,394.56076 388.12715,394.42129 389.55757,395.52519 C 388.64998,393.56431 389.16012,394.48064 389.16013,392.11132 L 388.25,322.4375 C 388.24999,319.77992 388.61008,316.11589 389.69591,317.45994 L 397.85678,316.81749 L 400.21242,315.09835 C 401.28315,313.9398 403.18797,312.81019 401.97997,312.81009 L 384.45753,312.81009 z M 442.82412,312.93229 C 441.616,312.9324 441.62253,312.77712 441.62259,315.4347 L 441.86698,376.99439 C 441.13376,380.02426 438.95377,381.41556 435.57412,383.84134 C 432.19156,385.29097 427.48273,386.242 422.65064,386.24198 C 417.81472,386.242 412.70936,384.97919 409.51963,383.66226 L 407.19792,383.50841 C 407.1979,385.5621 412.22382,387.77752 415.96875,389.46875 C 419.23041,390.9184 423.39498,390.43433 428.46875,390.4343 C 433.30084,390.43432 436.57458,389.20767 439.95713,387.75802 C 443.58117,384.90271 444.72187,384.1197 446.00561,381.88718 L 446.25,322.4375 C 446.24994,319.77992 446.85439,318.4376 448.0625,318.4375 L 455.18308,317.5809 L 457.53872,315.3125 C 459.46599,313.29736 461.64544,311.34385 460.4375,311.34375 L 442.82412,312.93229 z M 349.49512,333.81234 L 349.3125,382.1875 C 349.31243,383.39556 348.70797,384.00003 347.5,384 L 327.375,384 C 320.12376,384.00002 312.50965,384.23424 308.51835,378.73251 C 308.98878,379.68079 314.94743,384.58305 315.53038,385.44581 C 322.62234,390.38658 322.80678,391.09378 333.4375,391.09375 L 353.5625,391.09375 C 354.77048,391.09379 355.37493,390.52056 355.375,389.3125 L 355.28369,332.85913 C 355.28361,331.53039 354.67916,330.89045 353.47119,330.89038 L 349.49512,333.81234 z M 176.773,345.93469 C 181.24716,352.55656 184.86211,352.14076 190.29828,352.14071 L 214.46875,353.78125 C 219.30082,353.7813 222.05643,352.52942 226.78125,355.40625 C 228.73999,356.01418 230.48789,356.87642 232.03125,357.9375 C 231.22719,356.32 229.53775,355.23135 228.47305,354.04828 C 226.29852,351.51146 223.77455,350.44377 220.27133,349.35648 C 216.88877,348.2693 213.05793,347.25286 208.22586,347.25281 L 183.63922,347.25281 C 182.89661,347.25282 177.41416,346.02486 176.773,345.93469 z M 212.78584,368.80964 C 212.78593,368.83035 214.47437,376.0374 214.47437,376.0582 C 214.47431,381.85679 210.28252,384.14917 205.50711,385.34226 L 155.3082,385.19312 C 154.10017,385.19315 152.75,384.60448 152.75,385.8125 L 152.75,404.84375 C 152.75,406.05178 154.63936,404.72891 155.84739,402.80157 L 158.6296,400.44592 L 158.84375,392.90625 C 158.84375,391.69823 159.44822,391.09379 160.65625,391.09375 L 208.28212,390.10293 C 216.32828,386.63507 216.89787,386.22318 217.39335,379.92919 C 217.73196,375.62796 216.83086,373.7305 212.78584,368.80964 z M 522.96875,387.40625 L 534.46875,405.03125 C 534.98405,405.85586 535.76942,406.28523 536.8125,406.40625 L 525.875,389.65625 C 524.90855,388.14622 523.93518,387.40625 522.96875,387.40625 z"
         id="path4569"
         sodipodi:nodetypes="ccccccccccccccccccccccccccccccccccccccccccccccccccccccsccsccccccccccccccccccccccccccccccccccscccscccccccccccccccccccccccccccccccscccccccccscccccc"
         inkscape:export-filename="/home/bgray/software/sidux-art/svg-core/sidux-logo.png"
         inkscape:export-xdpi="90"
         inkscape:export-ydpi="90" />
    </g>
    <g
       id="g4571"
       inkscape:label="ring"
       style="display:none"
       transform="matrix(0.9703666,0,0,0.9703666,80.399816,208.44842)">
      <path
         sodipodi:type="arc"
         style="opacity:0.94267518;fill:none;fill-opacity:1;stroke:url(#linearGradient4914);stroke-width:3.9000001;stroke-miterlimit:4;stroke-dasharray:none;stroke-opacity:1;display:inline;filter:url(#filter9010)"
         id="path4573"
         sodipodi:cx="170.71577"
         sodipodi:cy="235.65385"
         sodipodi:rx="96.974648"
         sodipodi:ry="40.911179"
         d="M 178.79371,194.88486 A 96.974648,40.911179 0 1 1 155.19183,195.27028"
         transform="matrix(0.8064353,-0.5212764,0.616548,0.1038381,-90.024046,382.00476)"
         sodipodi:start="4.7957851"
         sodipodi:end="10.8348"
         sodipodi:open="true"
         inkscape:export-filename="/home/bgray/software/sidux-art/svg-core/sidux-logo.png"
         inkscape:export-xdpi="90"
         inkscape:export-ydpi="90" />
    </g>
    <g
       id="g4575"
       inkscape:label="planet"
       style="display:none"
       transform="matrix(0.9703666,0,0,0.9703666,80.399816,208.44842)">
      <path
         style="opacity:1;fill:#cc5a49;fill-opacity:1;stroke:none;stroke-opacity:1;display:inline;filter:url(#filter6192)"
         d="M 60.755894,368.54772 C 70.063305,369.32572 76.985719,377.51099 76.207713,386.8184 C 75.429707,396.12581 67.244441,403.04822 57.93703,402.27022 C 48.62962,401.49221 41.707205,393.30694 42.485212,383.99953 C 43.142282,376.1389 48.851537,369.96986 56.637857,368.70712"
         id="path4577"
         transform="matrix(0.8823588,0,0,0.8823588,205.95193,-50.149152)"
         inkscape:export-filename="/home/bgray/software/sidux-art/svg-core/sidux-logo.png"
         inkscape:export-xdpi="90"
         inkscape:export-ydpi="90" />
      <g
         style="opacity:1;display:inline"
         id="g4579"
         transform="translate(-113.59653,57.366238)">
        <path
           style="fill:#bcb9b9;fill-opacity:1;filter:url(#filter6664)"
           d="M 366.67158,245.41067 C 361.23794,243.58903 358.0787,239.38194 357.62729,233.36661 C 356.87171,223.29797 363.07839,217.11264 373.17625,217.87116 C 377.68136,218.20956 379.0486,218.82171 382.08804,221.86115 C 385.13036,224.90346 385.73841,226.26358 386.07217,230.77294 C 386.50469,236.61662 384.46712,241.1658 380.15245,243.9896 C 377.0401,246.02653 370.54945,246.71073 366.67158,245.41067 z"
           id="path4581" />
        <path
           style="fill:#ce8787;fill-opacity:1"
           d="M 364.38473,244.31517 C 360.53126,242.36529 357.35418,236.88562 357.35845,232.1966 C 357.37172,217.629 376.74597,212.34715 384.36011,224.83534 C 387.90231,230.645 386.29497,239.13651 380.84103,243.42658 C 377.65163,245.93536 368.55714,246.42644 364.38473,244.31517 z"
           id="path4583" />
        <path
           style="fill:#c0563a;fill-opacity:1;filter:url(#filter6712)"
           d="M 364.6244,244.11189 C 358.35217,241.38518 355.73231,233.4132 358.74157,226.21102 C 360.34839,222.36535 365.48252,218.32256 367.68579,219.16803 C 368.51774,219.48728 370.15563,219.23621 371.32554,218.61009 C 376.71153,215.7276 386.35471,223.86609 386.35471,231.29418 C 386.35471,235.48939 383.96592,240.37914 380.48534,243.30852 C 377.36023,245.93873 369.71717,246.32586 364.6244,244.11189 z"
           id="path4585" />
        <path
           style="fill:#a72d2d;fill-opacity:1"
           d="M 364.68019,244.13535 C 358.86895,241.60759 356.04312,234.09866 358.31382,227.21836 C 359.60956,223.29225 363.957,219.22789 366.01577,220.01791 C 366.72908,220.29164 368.71016,219.92801 370.41815,219.20985 C 374.73629,217.39421 377.94677,218.27357 381.91413,222.35863 C 387.81223,228.43171 387.74422,234.94382 381.71297,241.61969 C 378.40017,245.28656 377.7243,245.59145 372.98835,245.55534 C 370.16485,245.53381 366.42617,244.89481 364.68019,244.13535 z M 382.74842,232.53381 C 383.51037,227.76885 383.19163,227.07863 379.29993,225.06615 C 374.31984,222.49085 368.42126,225.51817 371.81217,228.90908 C 372.56703,229.66394 373.11041,231.07968 373.01968,232.05518 C 372.90214,233.31888 373.68774,233.92377 375.75222,234.15914 C 377.34585,234.34084 379.12335,234.96312 379.70222,235.54199 C 381.48702,237.32679 382.07481,236.74632 382.74842,232.53381 z"
           id="path4587" />
        <path
           style="fill:#7c0d0d;fill-opacity:1"
           d="M 364.54707,243.91889 C 361.02074,242.18107 357.33951,236.2593 357.37667,232.38432 C 357.432,226.61546 363.50728,218.33467 366.38121,220.11086 C 366.92305,220.44573 368.87081,220.17571 370.70957,219.5108 C 375.13956,217.9089 378.90913,218.9832 382.44601,222.85559 C 387.84162,228.76302 387.06674,237.0061 380.58046,242.70113 C 377.92928,245.0289 376.36341,245.59003 372.56991,245.57171 C 369.97655,245.55919 366.36627,244.81542 364.54707,243.91889 z M 376.60471,237.88875 C 375.36721,237.65039 373.34221,237.65039 372.10471,237.88875 C 370.86721,238.1271 371.87971,238.32212 374.35471,238.32212 C 376.82971,238.32212 377.84221,238.1271 376.60471,237.88875 z M 382.96393,233.34448 C 383.88661,229.44055 383.61738,227.59113 381.83571,225.59448 C 381.09955,224.76948 380.44471,223.64448 380.38052,223.09448 C 380.31633,222.54448 379.27177,222.24614 378.05926,222.43149 C 374.00263,223.05163 370.94554,225.07193 370.24668,227.59448 C 369.70045,229.56612 369.533,229.67761 369.45439,228.12197 C 369.35999,226.25403 369.27212,226.26738 367.79678,228.37373 C 366.93991,229.59707 366.54616,231.09524 366.92178,231.703 C 367.40788,232.48953 367.82288,232.455 368.36168,231.58321 C 368.91792,230.68318 369.68027,230.92004 371.23668,232.47645 C 372.43382,233.67359 374.63341,234.59448 376.29569,234.59448 C 377.91323,234.59448 379.51479,235.04448 379.85471,235.59448 C 381.00874,237.46175 382.19345,236.60443 382.96393,233.34448 z"
           id="path4589"
           sodipodi:nodetypes="cssssssccssccsssssssssssc" />
        <path
           style="fill:#420707;fill-opacity:1"
           d="M 367.35471,244.94241 C 360.89845,242.8154 356.64205,236.20681 357.78938,230.09104 C 358.70955,225.18611 362.75404,220.71117 366.17898,220.80855 C 367.69729,220.85172 369.90337,220.37121 371.08139,219.74076 C 373.65744,218.3621 376.33069,218.29371 378.32575,219.55542 C 380.04473,220.64254 379.7218,221.07895 376.45344,222.08565 C 374.47312,222.69562 374.16403,222.53377 374.69028,221.1624 C 375.274,219.64123 375.14009,219.6314 373.11904,221.047 C 371.9039,221.89811 370.1202,222.59448 369.15526,222.59448 C 368.19031,222.59448 366.66369,223.71948 365.76275,225.09448 C 364.86182,226.46948 363.528,227.59448 362.79872,227.59448 C 360.92461,227.59448 359.93066,229.57043 361.17756,230.81733 C 361.909,231.54877 362.73526,231.35679 363.90947,230.18258 C 365.97569,228.11636 366.87525,228.75333 365.50551,231.31272 C 364.00348,234.11928 365.59066,236.04197 367.37074,233.57224 C 368.79514,231.59599 371.01715,230.71362 369.86179,232.58303 C 369.51145,233.14989 369.91285,233.31753 370.80277,232.97604 C 371.65634,232.64849 372.35471,232.87865 372.35471,233.48749 C 372.35471,234.09634 373.60458,234.59448 375.1322,234.59448 C 376.65983,234.59448 378.84463,235.24933 379.98733,236.04971 C 381.95036,237.42467 382.12723,237.2971 383.1938,233.7372 C 383.95483,231.19714 384.01253,228.84941 383.3709,226.53197 C 382.50554,223.40645 382.55122,223.26907 383.87422,225.01821 C 387.78089,230.18325 386.38763,236.49537 379.9564,242.76775 C 377.68502,244.98303 376.17085,245.5774 372.9564,245.51553 C 370.70047,245.47211 368.17971,245.21421 367.35471,244.94241 z M 377.44846,239.54431 C 380.32178,238.00655 378.81256,236.59448 374.29569,236.59448 C 369.89699,236.59448 369.20385,237.73381 372.60471,239.37399 C 375.50086,240.77075 375.17805,240.7594 377.44846,239.54431 z M 366.56117,226.09448 C 366.76244,224.81241 367.76888,223.99506 369.36493,223.81753 C 371.71849,223.55573 371.74529,223.60577 369.85471,224.73207 C 368.75471,225.38738 367.49302,226.41201 367.05095,227.00902 C 366.57333,227.65404 366.37459,227.28296 366.56117,226.09448 z"
           id="path4591" />
        <path
           style="fill:#25160a;fill-opacity:1"
           d="M 365.42579,243.84293 C 361.61116,241.8978 358.84942,238.43155 357.96885,234.48374 C 357.44377,232.12971 357.64936,231.90185 360.05959,232.16643 C 361.61693,232.33738 363.21032,231.80663 363.87702,230.89486 C 364.82624,229.59672 365.02138,229.86072 365.02138,232.44304 C 365.02138,237.06499 369.51478,240.91172 374.25419,240.3471 C 376.23447,240.11118 378.64221,239.57219 379.60471,239.14933 C 382.20383,238.00746 381.83553,240.79415 379.04026,243.42017 C 376.16518,246.12116 370.25369,246.30473 365.42579,243.84293 z M 366.93731,235.72813 C 366.64282,235.25163 367.23778,234.10529 368.25944,233.1807 C 369.93591,231.66352 370.26786,231.65049 371.66443,233.04705 C 372.51551,233.89814 374.2565,234.60137 375.53328,234.60979 C 376.81007,234.61821 378.52971,235.06132 379.35471,235.59448 C 380.40593,236.27383 378.85284,236.56844 374.16373,236.57917 C 370.48369,236.58759 367.2318,236.20462 366.93731,235.72813 z M 383.85471,231.16283 C 383.85471,225.44003 384.69974,224.97923 385.77818,230.11394 C 386.16332,231.94768 385.91017,233.82017 385.13353,234.88228 C 384.0378,236.38079 383.85471,235.84829 383.85471,231.16283 z M 359.07464,227.59448 C 359.66452,224.1516 363.07862,220.70952 365.32181,221.29613 C 366.32745,221.55911 368.06894,221.2826 369.19179,220.68167 C 370.37084,220.05066 371.46971,219.97153 371.79284,220.49436 C 372.10056,220.99228 371.03881,221.85756 369.43338,222.41721 C 367.82796,222.97686 365.57849,224.3707 364.43457,225.51462 C 363.29065,226.65854 361.71271,227.59448 360.92803,227.59448 C 360.14336,227.59448 359.30897,228.15698 359.07383,228.84448 C 358.8387,229.53198 358.83906,228.96948 359.07464,227.59448 z"
           id="path4593" />
        <path
           style="fill:#111111;fill-opacity:1"
           d="M 368.99784,244.82608 C 368.73665,244.40345 370.23243,244.2207 372.32179,244.41995 C 374.41116,244.6192 376.42486,244.28999 376.79669,243.68835 C 377.16852,243.08672 377.95129,242.59448 378.53617,242.59448 C 379.20676,242.59448 379.13972,243.14859 378.35471,244.09448 C 377.06705,245.64602 369.85319,246.21006 368.99784,244.82608 z M 362.71503,242.13431 C 360.4343,240.53682 357.70583,234.91002 358.72011,233.89575 C 359.06914,233.54672 359.35471,233.8379 359.35471,234.54282 C 359.35471,235.50316 359.95829,235.42902 361.76215,234.24709 C 363.93314,232.8246 364.2281,232.82217 364.76539,234.22232 C 365.55229,236.27295 364.49724,237.86315 362.78558,237.20633 C 359.9482,236.11752 360.46372,238.53554 363.59512,241.00341 C 367.02447,243.70609 366.29582,244.64239 362.71503,242.13431 z M 371.10471,241.9322 C 371.79221,241.65479 372.91721,241.65479 373.60471,241.9322 C 374.29221,242.20961 373.72971,242.43659 372.35471,242.43659 C 370.97971,242.43659 370.41721,242.20961 371.10471,241.9322 z M 367.829,235.73544 C 366.79597,234.70241 367.43502,233.41132 368.73286,233.90935 C 369.49084,234.20021 370.61584,233.93336 371.23286,233.31634 C 372.062,232.4872 372.35471,232.61362 372.35471,233.80086 C 372.35471,234.89216 372.96987,235.24637 374.27319,234.90555 C 375.32835,234.62962 377.01585,234.87232 378.02319,235.4449 C 379.43768,236.2489 378.53961,236.45449 374.079,236.34783 C 370.90236,236.27188 368.08986,235.9963 367.829,235.73544 z M 384.35471,232.59448 C 384.35471,232.04448 384.83127,231.59448 385.41373,231.59448 C 385.99619,231.59448 386.19463,232.04448 385.85471,232.59448 C 385.51479,233.14448 385.03823,233.59448 384.79569,233.59448 C 384.55315,233.59448 384.35471,233.14448 384.35471,232.59448 z M 384.43366,228.01115 C 384.48164,226.8462 384.7186,226.60925 385.03782,227.40698 C 385.3267,228.12885 385.29117,228.99135 384.95888,229.32365 C 384.62659,229.65594 384.39024,229.06531 384.43366,228.01115 z M 360.35471,225.21692 C 360.35471,223.08532 362.9981,221.39284 365.54967,221.89077 L 367.85471,222.34058 L 365.67391,223.06607 C 364.3565,223.50433 363.70602,224.3464 364.0309,225.19302 C 364.38726,226.1217 363.85789,226.59448 362.4617,226.59448 C 361.30286,226.59448 360.35471,225.97458 360.35471,225.21692 z"
           id="path4595" />
      </g>
      <path
         style="opacity:0.36777781;fill:url(#radialGradient4916);fill-opacity:1;stroke:none;stroke-opacity:1;display:inline;filter:url(#filter8125)"
         d="M 258.62749,273.96319 C 266.83997,274.64966 272.94802,281.87201 272.26154,290.08448 C 271.57506,298.29696 264.35272,304.40501 256.14025,303.71853 C 247.92777,303.03205 241.81972,295.8097 242.5062,287.59723 C 243.08597,280.66133 248.12358,275.21802 254.99391,274.10383"
         id="path4597"
         inkscape:export-filename="/home/bgray/software/sidux-art/svg-core/sidux-logo.png"
         inkscape:export-xdpi="90"
         inkscape:export-ydpi="90" />
    </g>
    <path
       transform="matrix(0.4726352,0,0,0.4726352,-297.26632,-10.802407)"
       d="M 911.66665,100 A 18.333334,18.333334 0 1 1 874.99998,100 A 18.333334,18.333334 0 1 1 911.66665,100 z"
       sodipodi:ry="18.333334"
       sodipodi:rx="18.333334"
       sodipodi:cy="100"
       sodipodi:cx="893.33331"
       id="path4599"
       style="fill:url(#radialGradient4857);fill-opacity:1;stroke:none;stroke-width:1;stroke-miterlimit:4;stroke-dasharray:none;stroke-opacity:1;display:inline;filter:url(#filter3602)"
       sodipodi:type="arc"
       inkscape:export-filename="/home/bernie/software/sidux-art/gaia/ksplash-logo.png"
       inkscape:export-xdpi="90"
       inkscape:export-ydpi="90" />
    <path
       sodipodi:type="arc"
       style="fill:none;fill-opacity:1;stroke:#000000;stroke-width:0.67402661;stroke-miterlimit:4;stroke-dasharray:none;stroke-opacity:1;display:inline"
       id="path4601"
       sodipodi:cx="907.5"
       sodipodi:cy="287.91666"
       sodipodi:rx="65"
       sodipodi:ry="27.083334"
       d="M 972.5,287.91666 A 65,27.083334 0 1 1 871.77049,265.29199"
       transform="matrix(0.907439,-0.4598581,0.6351266,0.5003881,-938.42255,348.50049)"
       sodipodi:start="0"
       sodipodi:end="4.1304021"
       sodipodi:open="true"
       inkscape:export-filename="/home/bernie/software/sidux-art/gaia/ksplash-logo.png"
       inkscape:export-xdpi="90"
       inkscape:export-ydpi="90" />
    <path
       sodipodi:type="arc"
       style="opacity:0.85393258;fill:#000000;fill-opacity:1;stroke:none;stroke-width:0.60000002;stroke-miterlimit:4;stroke-dasharray:none;stroke-opacity:1;display:inline"
       id="path4603"
       sodipodi:cx="802.86084"
       sodipodi:cy="212.70215"
       sodipodi:rx="30.935923"
       sodipodi:ry="21.507832"
       d="M 787.39288,194.07582 A 30.935923,21.507832 0 1 1 785.85582,194.73511"
       sodipodi:start="4.1887902"
       sodipodi:end="10.413587"
       sodipodi:open="true"
       transform="matrix(6.5117577e-2,0,0,9.3631381e-2,72.966602,25.220583)"
       inkscape:export-filename="/home/bernie/software/sidux-art/gaia/ksplash-logo.png"
       inkscape:export-xdpi="90"
       inkscape:export-ydpi="90" />
    <path
       sodipodi:open="true"
       sodipodi:end="5.6753397"
       sodipodi:start="4.6625238"
       transform="matrix(0.907439,-0.4598581,0.6351266,0.5003881,-938.42255,348.50049)"
       d="M 904.26011,260.86699 A 65,27.083334 0 0 1 960.85722,272.44936"
       sodipodi:ry="27.083334"
       sodipodi:rx="65"
       sodipodi:cy="287.91666"
       sodipodi:cx="907.5"
       id="path4605"
       style="fill:none;fill-opacity:1;stroke:#000000;stroke-width:0.67402661;stroke-miterlimit:4;stroke-dasharray:none;stroke-opacity:1;display:inline"
       sodipodi:type="arc"
       inkscape:export-filename="/home/bernie/software/sidux-art/gaia/ksplash-logo.png"
       inkscape:export-xdpi="90"
       inkscape:export-ydpi="90" />
    <text
       xml:space="preserve"
       style="font-size:12px;font-style:normal;font-weight:normal;fill:#000000;fill-opacity:1;stroke:none;stroke-width:1px;stroke-linecap:butt;stroke-linejoin:miter;stroke-opacity:1;font-family:Bitstream Vera Sans"
       x="37.578693"
       y="662.4433"
       id="text5297"><tspan
         sodipodi:role="line"
         id="tspan5299"
         x="37.578693"
         y="662.4433">Export to bitmap:</tspan><tspan
         sodipodi:role="line"
         x="37.578693"
         y="677.4433"
         id="tspan5301">x0: 170</tspan><tspan
         sodipodi:role="line"
         x="37.578693"
         y="692.4433"
         id="tspan5303">x1: 670</tspan><tspan
         sodipodi:role="line"
         x="37.578693"
         y="707.4433"
         id="tspan5305">y0: 460</tspan><tspan
         sodipodi:role="line"
         x="37.578693"
         y="722.4433"
         id="tspan5307">y1: 620</tspan><tspan
         sodipodi:role="line"
         x="37.578693"
         y="737.4433"
         id="tspan5315" /><tspan
         sodipodi:role="line"
         x="37.578693"
         y="752.4433"
         id="tspan5309">Bitmap Size:</tspan><tspan
         sodipodi:role="line"
         x="37.578693"
         y="767.4433"
         id="tspan5311">Width: 156</tspan><tspan
         sodipodi:role="line"
         x="37.578693"
         y="782.4433"
         id="tspan5313">Height: 50</tspan></text>
  </g>
</svg>
